<?xml version="1.0" encoding="UTF-8"?>
<svg id="Layer_1" data-name="Layer 1" xmlns="http://www.w3.org/2000/svg" viewBox="0 0 200 200">
  <defs>
    <style>
      .cls-1 {
        stroke-width: 0px;
      }

      .cls-2 {
        stroke-width: 3px;
      }

      .cls-2, .cls-3 {
        fill: none;
        stroke: #231f20;
        stroke-miterlimit: 10;
      }

      .cls-3 {
        stroke-width: 4px;
      }
    </style>
  </defs>
  <g>
    <path class="cls-1" d="m74.97,136.05c-8.2-6.88-12.94-15.77-14.12-26.46-.06-.54.29-1.13.45-1.69.52.36,1.14.64,1.55,1.1.65.73,1.06,1.68,1.74,2.37,5.53,5.6,12.12,7.43,19.68,5.16,7.7-2.31,12.09-7.71,13.34-15.52,1.2-7.5-1.6-13.65-7.54-18.16-6.11-4.64-12.89-5.59-20.07-2.42-.49.22-1.16.03-1.75.02.15-.56.13-1.29.48-1.66,12.33-13.06,27.15-18.6,44.96-14.42,18.65,4.38,29.76,21.16,31,35.81,1.89,22.26-15.01,46.39-42.13,45.95-10.41-.03-19.66-3.43-27.59-10.08Zm45.66-7.17c-4.05,2.97-8.43,5.05-13.38,5.94-4.84.87-9.67.89-14.5-.01-4.89-.92-9.45-2.66-13.66-5.38-4.07-2.64-7.38-6.08-10.44-9.84-.2.15-.4.3-.6.46.25.59.37,1.31.79,1.74,2.74,2.8,5.19,6.08,8.39,8.21,13.38,8.89,27.34,9.97,41.63,1.98,4.91-2.74,8.48-6.84,11.5-11.47.35-.54.39-1.27.57-1.92-.24-.13-.48-.25-.72-.38-2.91,3.82-5.65,7.78-9.58,10.67Zm-6.46-46.61c1.43,1.31,1.77,3.8,2.61,5.8.69-1.9.94-4.2,2.2-5.58,1.26-1.39,3.53-1.86,5.04-2.58-1.5-.69-3.78-1.13-5.06-2.5-1.24-1.32-1.47-3.6-2.32-5.92-1.16,2.23-.29,5.03-2.47,6.22-1.88,1.03-3.96,1.67-5.72,2.38,1.69.59,4.22.82,5.72,2.19Zm15.94,19.42c2.35.5,3.79,1.62,4.05,4.13.72-2.08,1.37-3.96,4.1-3.72-.05-.2-.09-.41-.14-.61-.89-.32-2-.43-2.62-1.04-.58-.57-.62-1.67-.9-2.54-.17-.08-.34-.16-.51-.24-.29,2.35-1.66,3.54-3.99,4.01Zm-13.63,2.09c.26-.67.48-1.24.73-1.89.64-.2,1.35-.41,2.05-.63.01-.16.03-.33.04-.49-.67-.23-1.34-.46-2.17-.74-.17-.56-.38-1.26-.62-2.06-.91,1.08-1.7,2.01-2.57,3.03.69.76,1.53,1.68,2.54,2.78Zm-7.74,9.19c.19.68,1.03,1.33,1.74,1.61.25.1,1.36-.93,1.34-1.4-.04-.7-.75-1.35-1.17-2.03-.23,0-.46,0-.7,0-.44.61-1.34,1.35-1.21,1.81Zm-9.84,12.26c.47-.02,1.33-.91,1.27-1.31-.09-.58-.78-1.41-1.32-1.49-.49-.08-1.12.69-1.68,1.09,0,.22,0,.45,0,.67.58.38,1.16,1.06,1.73,1.04Zm3.67-37.01c.45-.02,1.3-1,1.2-1.31-.19-.59-.86-1.25-1.46-1.39-.37-.09-.96.7-1.89,1.44,1,.63,1.59,1.29,2.14,1.26Zm27.64-.99c.47-.01,1.27-.82,1.27-1.28,0-.49-.7-1.28-1.21-1.38-.44-.09-1.04.61-1.94,1.2.87.72,1.38,1.47,1.88,1.46Zm-35.71-13.21c.17.04.8-.83.71-1.02-.28-.53-.76-1.03-1.29-1.31-.15-.08-.72.66-1.43,1.33.89.47,1.42.86,2.01.99Z"/>
    <path class="cls-1" d="m143.9,45.62c3.43.36,6.52.63,9.59,1,7.41.89,13.48,4.3,18.33,9.92.52.61.9,1.33,1.35,2.01.32-.21.64-.42.95-.62-.65-1.84-1.16-3.75-1.99-5.5-.73-1.54-1.71-3-2.77-4.33-3.22-4.02-4.38-8.7-4.76-13.69-.15-1.94-.45-3.86-.69-5.88.24,0,.53-.09.65.01,6.39,5.17,11.02,11.16,11.07,20.03.03,5.1,1.21,10.19,1.93,15.28.08.59.49,1.13,1.05,1.73.63-5.24,3.12-9.56,5.86-13.84,3.32,6.56,4.87,13.31,1.14,19.9-2.08,3.67-2.15,6.87-1.02,10.66.78,2.63.85,5.48,1.24,8.22.07.52.19,1.03.32,1.77,1.53-3.17,3.14-5.99,4.27-8.98,1.09-2.9,1.69-5.99,2.54-9.1.12.08.5.19.59.41,2.87,7.41,3.07,15.82-3.96,21.57-4.41,3.6-4.05,8.1-4.43,13.14,1.69-2.05,2.92-3.96,4.55-5.41,1.55-1.37,3.32-2.86,6.1-1.89-9.21,6.03-11.18,15.66-13.5,25.84,4.13-3.99,7.82-7.55,11.48-11.08,1.1,8.84-3.19,21.71-12.93,25.81-5.91,2.49-9.45,6.77-11.41,12.65-.31.93-.56,1.95-1.15,2.68-.46.57-1.41.74-2.14,1.1-.13-.72-.56-1.56-.33-2.14,1.6-3.94,3.25-7.87,5.07-11.7.93-1.96.8-3.26-.79-4.95-5.48-5.8-7.29-12.63-4.89-20.38.23-.74.63-1.43,1.07-2.4,6.02,3.98,10.32,8.67,10.41,16.19.2,0,.39,0,.59,0,.4-.8.93-1.57,1.17-2.41.58-2.04.86-4.18,1.55-6.18.85-2.48-.21-4.19-1.98-5.53-1.49-1.12-3.19-1.98-4.84-2.86-3.8-2.04-6.14-5.18-7.6-9.59,3.94-.6,7.17.03,10.18,2.21,2.99,2.17,4.17,5.47,5.79,8.59,1.15-4.24,1.6-8.32-1.82-11.81-1.09-1.11-2.14-2.26-3.29-3.31-4.66-4.25-6.68-9.56-6.43-15.81.06-1.59,0-3.18.37-4.88,5.06,4.09,9.91,8.13,12.58,14.12.26-.18.49-.27.49-.35.04-5.09-.28-10.13-2.18-14.92-.98-2.48-3.16-3.41-5.56-3.91-2.4-.5-4.89-.69-7.19-1.46-4.21-1.4-7.05-4.58-9.84-8.59,4.25-1.24,8.32-1.66,11.87.63,3.37,2.17,6.21,5.15,9.15,7.66-.78-7.29-5.57-12.71-12.68-14.1-2.65-.52-5.33-.86-7.96-1.45-7-1.59-11.39-6.41-14.83-12.31-.26-.44-.21-1.06-.33-1.77Zm33.12,95.24c6.94-2.09,14.15-11.42,13.36-17.24-5.26,5.1-10.94,9.71-13.36,17.24Zm-3.99-52.94c-.53,8.04,4.81,12.19,9.29,16.95,1.62-3.47-2.93-11.2-9.29-16.95Zm-5.86-31.87c-2.85-3.95-14.03-8.59-18.74-6.61,6.47,2.28,12.6,4.45,18.74,6.61Zm6.31,81.6c2.67-3.79-1.22-14.88-6.26-15.83,1.25,2.48,3.04,4.71,4.08,7.25,1.09,2.66,1.46,5.61,2.19,8.58Zm8.78-65.36c2.66-4.87,3.37-11.7,1.6-14.26-2.3,4.24-3.04,10.4-1.6,14.26Zm-9.82-27.47c.05-4.17-1.83-7.35-4.56-10.08-.22.11-.44.23-.66.34,1.74,3.25,3.48,6.49,5.22,9.74Zm-8.7,23.86c2.67.86,5.13,1.65,7.89,2.53-2.36-2.6-5.2-3.5-7.89-2.53Zm6.73,40.62c-.14.29-.27.57-.41.86,1.86.88,3.72,1.77,5.57,2.65-1.18-2.15-3.02-3.11-5.16-3.51Z"/>
    <path class="cls-1" d="m39.25,28.14c-.57,8.07-.75,16.08-6.42,22.46-1.71,1.93-2.41,4.37-2.55,7.44,1.52-1.55,2.69-2.84,3.97-4.02,5.07-4.68,11.14-7,17.96-7.54,2.56-.2,5.1-.59,8.15-.95-.43,1.14-.63,1.97-1.02,2.71-3.93,7.4-10.33,11.09-18.43,12.24-2.42.34-4.85.76-7.23,1.31-3.35.77-5.58,2.91-6.91,6.04-1.07,2.52-2.18,5.03-3.27,7.54.24.15.49.31.73.46.88-1.07,1.8-2.11,2.63-3.21,4.04-5.38,9.3-7.51,15.93-6.05.45.1.85.38,1.35.61-2.67,4.69-6.04,8.25-11.54,9.17-1.61.27-3.22.59-4.79,1.04-2.97.85-5.49,2.29-6.05,5.68-.71,4.3-1.31,8.61-1.58,13.06,2.88-6.11,8.52-9.54,12.73-14.52,2.44,7.16-.33,16.83-5.9,21.55-1.43,1.21-2.87,2.45-4.11,3.85-2.34,2.64-2.68,7.82-.73,11.32,1.52-4.49,3.3-8.75,7.93-10.47,2.21-.82,4.72-.83,7.1-1.21.13.21.26.42.39.64-.22.64-.35,1.33-.69,1.9-1.97,3.37-4.33,6.3-8.14,7.82-1.33.53-2.59,1.41-3.65,2.38-1.88,1.74-2.57,3.91-1.72,6.46.88,2.65,1.7,5.33,2.54,8,.22-.05.43-.1.65-.15.22-1.65.32-3.32.68-4.94,1.05-4.74,4.33-7.74,8.2-10.26,1.51-.98,2.12.03,2.5,1.2,2.17,6.72,1.44,13.17-3.31,18.4-2.92,3.22-3.79,5.7-1.25,9.48,1.84,2.75,2.99,5.98,4.29,9.07.25.59-.26,1.49-.42,2.25-.69-.43-1.67-.69-2-1.31-1.32-2.44-2.4-5-3.64-7.48-1.45-2.91-3.86-4.84-6.74-6.19-10.11-4.74-14.71-12.98-15.24-23.84-.03-.57-.07-1.14-.12-1.71-.04-.54-.09-1.08-.13-1.62.18-.14.37-.29.55-.43,3.53,3.59,7.07,7.18,10.6,10.76.33-1.7-1.86-9.53-3.75-13.8-2.01-4.57-5.35-8.09-8.94-11.56,2.36-.58,4.13.58,5.63,1.91,1.55,1.37,2.76,3.11,4.41,5.02-.13-4.8.43-9.09-3.79-12.48-7.05-5.66-6.81-13.84-4.4-21.07.14-.41.53-.73.91-1.22,1.01,3.23,1.83,6.28,2.93,9.23,1.12,3.02,2.5,5.94,3.84,9.1,1.02-5.41,2.08-10.65,2.9-15.92.13-.84-.77-1.91-1.35-2.77-4.53-6.62-3.85-15.77.71-21.96,3.02,4.21,4.93,8.74,5.22,14.04,1.62-2.84,2.71-5.75,2.91-8.89.24-3.75.18-7.51.41-11.26.34-5.52,2.84-9.98,6.95-13.6,1.39-1.22,2.76-2.46,4.14-3.7ZM12.81,123.62c.17,6.78,7.29,16.11,13.79,17.18-2.94-7.05-7.99-12.27-13.79-17.18Zm17.87-34.65c-5.46,2.13-11.31,12.2-9.7,16.68,4.21-5,9.76-9.14,9.7-16.68Zm24.87-40.01c-7.03.2-13.58,1.65-18.59,7.09,5.85-3.29,12.96-3.21,18.59-7.09Zm-35.5,8.12c-2.09,4.86-1.38,11.28,1.49,14.73.97-5.06.44-9.7-1.49-14.73Zm10.28,81.27c-.7-6.53,1.96-11.91,5.72-16.94-5.89,1.98-8.81,12.38-5.72,16.94Zm.55-92.68c1.73-3.55,3.45-7.09,5.18-10.64-3.97,2.53-5.19,6.31-5.18,10.64Zm.2,26.42c2.93-1.31,5.78-2.57,8.84-3.94-4.17-.41-7.51,1.1-8.84,3.94Zm-3.59,40.82c2.33-1.21,4.28-2.21,6.51-3.36-2.86-.43-5,.64-6.51,3.36Z"/>
    <path class="cls-1" d="m103.95,64.44c-1.03-2.42-1.55-5.3-3.22-7.12-1.58-1.72-4.37-2.33-7.04-3.63,3.16-.49,6.35-.82,7.74-3.76,1.16-2.46,1.7-5.22,2.53-7.92.99,2.75,1.68,5.48,2.94,7.92,1.44,2.78,4.64,2.92,7.71,3.67-2.83,1.38-5.74,2.05-7.48,3.85-1.69,1.75-2.19,4.66-3.18,7Zm-.19-8.79c2.32-1.59,2.34-2.13.05-3.71-1.37,1.22-1.79,2.43-.05,3.71Z"/>
    <path class="cls-1" d="m162.41,151.25c-5.79.69-8.27,4.08-8.51,9.55-.19-.09-.37-.17-.56-.26-.96-2.04-1.51-4.46-2.98-6.01-1.5-1.59-3.9-2.34-5.87-3.44-.19.24,8.77-11.07,9.18-11.58.82,5.53,1.56,10.95,8.73,11.75Z"/>
    <path class="cls-1" d="m40.95,150.5c7.09-.41,8.51-5.39,9.3-11.33,1.24,3.16,1.7,6,3.29,7.89,1.52,1.8,4.22,2.61,6.26,3.77-1.77.89-4.38,1.55-5.97,3.2-1.59,1.65-2.16,4.28-3.24,6.61-.97-2.23-1.47-4.78-2.96-6.42-1.45-1.6-3.92-2.26-6.67-3.73Zm9.79-1.53c-1.38,1.36-1.76,2.46-.28,3.78,1.55-1.04,1.7-2.15.28-3.78Z"/>
    <path class="cls-1" d="m115.65,36.52c-1.61.94-2.21.02-2.78-.91-.48-.79-.95-1.59-1.42-2.39-.21.06-.43.12-.64.18,0,.84.08,1.69-.04,2.52-.05.37-.48.69-.74,1.03-.32-.29-.92-.58-.92-.88-.06-3.76-.08-7.51.03-11.27,0-.36,1.04-1.09,1.34-.97,1.31.48,2.84.94,3.69,1.93,1.18,1.37,1.82,3.49.46,4.97-1.64,1.79-.76,3.01.19,4.45.26.39.48.8.82,1.35Zm-4.59-5.95c1.82.29,2.19-.89,2.31-2.15.14-1.45-.65-2.18-2.31-2.4v4.55Z"/>
    <path class="cls-1" d="m97.27,23.71c.29.71.63,1.4.86,2.13.91,2.88,1.84,5.75,2.62,8.66.21.79-.09,1.71-.15,2.58-.73-.55-1.46-1.09-2.18-1.64-1.49-.41-3.52-1.35-4.4,1.27-.09.27-.93.29-2.11.62,1.67-4.94,3.14-9.29,4.61-13.65.25.01.5.02.76.03Zm-1.69,8.74c1.08-.06,1.67-.09,2.52-.14-.41-1.22-.74-2.2-1.07-3.19-.2.02-.4.03-.6.05-.25.95-.5,1.9-.86,3.28Z"/>
    <path class="cls-1" d="m181.27,150.25c-1.19,3.83-4.13,6.47-7.38,6.63.35-4.45,3.47-7.26,7.38-6.63Z"/>
    <path class="cls-1" d="m166.07,166.06c-.18,3.81-3.19,6.48-7.05,6.24,2.85-6.25,3.81-7.1,7.05-6.24Z"/>
    <path class="cls-1" d="m22.4,150.27c4.45-.91,6.52,2.26,6.91,6.21-3.01-.03-6.17-2.87-6.91-6.21Z"/>
    <path class="cls-1" d="m105.37,37.28c-.46-.67-1.1-1.17-1.11-1.7-.11-3.42-.12-6.85-.06-10.28,0-.49.58-.98.9-1.46.33.37.93.73.93,1.1.03,3.83-.04,7.66-.09,11.49,0,.13-.17.26-.56.85Z"/>
    <path class="cls-1" d="m44.75,172.21c-3.59-.16-6.09-1.81-6.6-4.27-.13-.63-.07-1.67.31-1.92.45-.3,1.62-.23,1.98.15,1.3,1.4,2.41,2.98,3.56,4.52.28.37.42.84.75,1.53Z"/>
    <path class="cls-1" d="m101.82,10.23c-1.39-.13-2.4-1.02-2.05-2.38.22-.84,1.37-1.87,2.24-2.02,1.29-.23,2.4.65,2.33,2.18-.06,1.46-1,2.16-2.51,2.21Z"/>
    <path class="cls-1" d="m104.98,192.46c-1.48.98-2.3,1.89-3.23,2.03-1.33.21-2.1-.86-2.06-2.16.04-1.3.83-2.32,2.19-2.01.92.22,1.68,1.12,3.1,2.14Z"/>
    <path class="cls-1" d="m89.98,38.33c-.71.48-1.54,1.45-2.1,1.32-.81-.19-1.43-1.2-2.12-1.85.64-.6,1.26-1.65,1.94-1.69.74-.05,1.53.84,2.3,1.32,0,.3,0,.61-.01.91Z"/>
    <path class="cls-1" d="m65.41,29.86c-1.23,1-2.01,2.06-2.54,1.95-.77-.17-1.36-1.18-2.02-1.82.62-.61,1.18-1.59,1.88-1.71.62-.1,1.39.77,2.69,1.59Z"/>
    <path class="cls-1" d="m141.79,32.66c-.81-1.32-1.62-2.07-1.59-2.8.02-.56,1.24-1.64,1.64-1.52.72.21,1.56,1.09,1.69,1.82.1.54-.84,1.27-1.74,2.5Z"/>
    <path class="cls-1" d="m116.08,40.15c-.79-1.07-1.58-1.69-1.64-2.37-.04-.52.84-1.12,1.31-1.68.63.59,1.49,1.09,1.78,1.82.15.37-.72,1.16-1.45,2.23Z"/>
    <path class="cls-1" d="m76.24,156.92c-.9.75-1.58,1.69-2.01,1.59-.66-.16-1.16-1.03-1.72-1.6.53-.51,1.03-1.39,1.6-1.43.56-.04,1.18.76,2.13,1.44Z"/>
    <path class="cls-1" d="m60.55,177.53c-1,.66-1.62,1.4-2.19,1.37-.57-.03-1.1-.83-1.65-1.3.57-.54,1.07-1.4,1.72-1.53.48-.1,1.15.75,2.13,1.46Z"/>
    <path class="cls-1" d="m104.14,160.27c-.97.8-1.57,1.67-2.08,1.62-.57-.06-1.29-.89-1.47-1.52-.1-.34.8-1.33,1.28-1.36.59-.03,1.23.63,2.28,1.26Z"/>
    <path class="cls-1" d="m147.66,177.45c-.95.73-1.54,1.53-2.07,1.49-.61-.04-1.17-.82-1.75-1.27.56-.58,1.03-1.44,1.7-1.65.41-.13,1.13.73,2.12,1.43Z"/>
    <path class="cls-1" d="m152.26,22.39c-.96.78-1.53,1.61-2.07,1.58-.56-.03-1.48-.85-1.51-1.37-.03-.5.8-1.41,1.36-1.51.52-.09,1.18.65,2.21,1.29Z"/>
    <path class="cls-1" d="m131.52,157.06c-.97.71-1.57,1.5-2.1,1.45-.58-.05-1.09-.88-1.62-1.36.5-.52.96-1.4,1.51-1.47.54-.07,1.19.7,2.21,1.38Z"/>
    <path class="cls-1" d="m131.96,40c-1.01.71-1.65,1.49-2.19,1.43-.57-.06-1.06-.93-1.59-1.44.53-.52,1.02-1.39,1.61-1.46.53-.06,1.17.74,2.17,1.47Z"/>
    <path class="cls-1" d="m73.88,37.86c.67.95,1.47,1.6,1.37,2.07-.12.58-.94,1.35-1.52,1.4-.45.04-1.37-.88-1.38-1.39-.02-.55.78-1.12,1.53-2.08Z"/>
    <path class="cls-1" d="m135.17,14.08c-.96.64-1.52,1.3-2.02,1.26-.51-.05-.95-.8-1.42-1.25.46-.48.88-1.27,1.4-1.34.48-.06,1.06.65,2.04,1.33Z"/>
    <path class="cls-1" d="m55.77,22.37c-.84.68-1.45,1.49-1.8,1.39-.6-.18-1.04-.92-1.55-1.42.49-.45.94-1.19,1.48-1.26.45-.06,1.01.66,1.87,1.29Z"/>
    <path class="cls-1" d="m72.81,14.16c-.94.59-1.53,1.27-2.01,1.2-.51-.08-1.25-.88-1.24-1.35,0-.45.84-1.21,1.34-1.23.49-.02,1.02.7,1.91,1.39Z"/>
    <path class="cls-1" d="m49.78,39.32c-.95.66-1.5,1.35-2.03,1.33-.49-.02-.96-.78-1.44-1.21.48-.47.91-1.25,1.45-1.33.48-.08,1.08.61,2.02,1.21Z"/>
    <path class="cls-1" d="m158.3,39.31c-.94.64-1.49,1.31-1.98,1.27-.53-.04-1-.75-1.5-1.17.45-.47.87-1.25,1.37-1.31.5-.07,1.1.59,2.11,1.21Z"/>
    <path class="cls-1" d="m47.39,27.48c.6.93,1.29,1.53,1.22,2.01-.08.49-.94,1.22-1.4,1.18-.47-.04-1.19-.87-1.23-1.39-.03-.46.72-.98,1.41-1.81Z"/>
    <path class="cls-1" d="m125.9,24.3c.69.9,1.33,1.39,1.38,1.92.04.42-.75,1.32-1.03,1.26-.59-.12-1.38-.63-1.51-1.14-.12-.42.57-1.07,1.17-2.05Z"/>
    <path class="cls-1" d="m68.89,182.15c-.92.51-1.48,1.05-2.06,1.07-.35,0-1.09-.99-.99-1.21.26-.54.86-1.14,1.42-1.25.35-.07.86.7,1.63,1.39Z"/>
    <path class="cls-1" d="m136.41,180.11c.64.79,1.29,1.24,1.28,1.69,0,.49-.61.97-.95,1.45-.5-.41-1.23-.75-1.41-1.27-.12-.35.53-.97,1.08-1.87Z"/>
    <path class="cls-1" d="m87.1,69.54c-1.27.79-2.1,1.71-2.75,1.61-.67-.11-1.55-1.19-1.62-1.92-.05-.5,1.15-1.59,1.75-1.56.73.03,1.42.96,2.62,1.88Z"/>
  </g>
  <polygon class="cls-2" points="102.02 191.24 187.58 43.04 16.45 43.04 102.02 191.24"/>
  <line class="cls-3" x1="20.5" y1="80.63" x2="183.53" y2="80.63"/>
</svg>