<?xml version="1.0" encoding="UTF-8"?>
<svg id="Layer_1" data-name="Layer 1" xmlns="http://www.w3.org/2000/svg" viewBox="0 0 200 200">
  <defs>
    <style>
      .cls-1, .cls-2 {
        stroke-width: 0px;
      }

      .cls-3 {
        stroke-width: 3px;
      }

      .cls-3, .cls-4 {
        fill: none;
        stroke: #231f20;
        stroke-miterlimit: 10;
      }

      .cls-2 {
        fill: #fff;
      }

      .cls-4 {
        stroke-width: 4px;
      }
    </style>
  </defs>
  <g>
    <path class="cls-1" d="m103.01,144.07c-20.13.02-35.58-10.36-41.64-27.35-5.97-16.72-2.32-33.06,11.23-45.9,13.93-13.2,34.88-15.12,51.25-4.97,11.89,7.37,19.42,17.82,20.93,31.94,1.4,13.1-2.73,24.37-12.25,33.62-8.79,8.54-19.36,12.52-29.52,12.66Z"/>
    <path class="cls-2" d="m76.2,113.73c.87-.8,1.69-1.57,2.52-2.33-.24.23-.47.46-.71.69-.86-.8-1.72-1.61-2.58-2.41l.82-.7c-.76.85-1.52,1.69-2.21,2.45.76.81,1.5,1.6,2.16,2.3Z"/>
    <path class="cls-2" d="m95.78,68.25c-1.11-.75-1.86-1.59-2.3-1.46-.67.21-1.38,1.03-1.57,1.73-.09.35.97,1.43,1.46,1.4.67-.04,1.28-.84,2.4-1.67Z"/>
    <path class="cls-2" d="m82.56,71.42c-.94-.75-1.57-1.59-1.96-1.5-.61.16-1.29.87-1.5,1.5-.1.32.78,1.38,1.18,1.35.64-.04,1.24-.7,2.28-1.36Z"/>
    <path class="cls-2" d="m92.28,129.05c-.88-.79-1.41-1.63-1.85-1.58-.63.07-1.61.74-1.66,1.22-.05.55.68,1.54,1.23,1.67.5.12,1.21-.66,2.27-1.31Z"/>
    <path class="cls-2" d="m115.6,68.39c-1.03-.69-1.68-1.44-2.13-1.33-.6.14-1.27.88-1.45,1.5-.09.3.88,1.3,1.33,1.28.62-.03,1.21-.73,2.25-1.45Z"/>
    <path class="cls-2" d="m116.64,135.14c-.69-.53-1.21-1.15-1.43-1.06-.51.22-.87.79-1.3,1.21.36.33.74.95,1.06.92.47-.04.91-.56,1.66-1.08Z"/>
    <path class="cls-2" d="m66.85,106.14c-.61.78-1.16,1.19-1.21,1.66-.04.34.56.76.88,1.15.4-.37.99-.68,1.15-1.14.11-.32-.38-.84-.81-1.67Z"/>
    <path class="cls-1" d="m183.86,95.82c2.13-5.28,4.24-10.58,6.41-15.85.31-.75.88-1.38,1.33-2.07.36.72.96,1.42,1.06,2.17.69,5.6,1.35,11.2,1.85,16.82.21,2.43.16,4.91-.03,7.35-.54,6.9-3.57,12.49-9.11,16.69-.65.49-1.21,1.14-1.9,1.54-4.59,2.64-5.46,7.21-6.27,11.53,3.85-3.01,7.85-6.04,11.74-9.22,1.44-1.18,2.6-2.7,3.95-4,.4-.38,1.02-.53,1.54-.78.07.59.37,1.29.16,1.75-.64,1.41-1.57,2.68-2.21,4.09-.84,1.84-1.75,3.69-2.21,5.64-1.96,8.36-7.05,14.21-14.34,18.37-.64.36-1.25.81-1.93,1.07-4.06,1.55-5.37,4.88-5.83,8.81-.23,1.94-.49,3.9-.97,5.79-.18.7-1.06,1.22-1.62,1.83-.42-.68-1.24-1.4-1.19-2.04.19-2.43.6-4.86,1.04-7.27.87-4.7.85-9.33-1.41-13.65-4.77-9.11-5.55-18.67-3.7-28.63.43-2.31.36-4.71.57-7.06.04-.44.29-.85.69-1.97,5.27,7.91,11.45,14.6,12.89,24.27,3.46-5.96,2.87-12.4-1.54-16.97-10.73-11.1-12.93-24.46-10.49-39.06.34-2.05,1.15-4.02,1.82-6.3.64.47,1.05.62,1.23.91,2.17,3.54,3.99,7.36,6.53,10.61,4.95,6.35,6.44,13.65,6.75,21.36.15,3.59.05,7.19.06,10.79,0,.77,0,1.54,0,2.31.23.04.47.08.7.11.19-.71.44-1.41.55-2.13,1.23-8.08.61-16.15-.15-24.22-.23-2.44-.68-4.87-.83-7.31-.1-1.62-.58-2.62-2.15-3.41-2.54-1.28-4.1-3.42-4.15-6.45-.06-4.02,2.04-6.76,5.89-7.57,3.22-.68,6.51,1.15,7.91,4.41,1.53,3.56.62,7.46-2.65,9.22-1.94,1.04-2.17,2.3-1.99,4.12.46,4.78.87,9.56,1.29,14.34.24.02.48.03.72.05Zm-7.87,10.83c.96-11.83-2.71-21.79-10.72-30.34-.17.29-.45.59-.53.94-1.38,6.67-.8,13.01,3.34,18.69,2.54,3.49,5.12,6.95,7.9,10.71Zm-12.35,9.55c-2.47,8.66-2.08,16.99,2.92,25.19,2.29-9.06.96-17.27-2.92-25.19Zm23.44,14.32c-7.22,3.99-12.43,9.63-15.09,18.1,7.79-4.25,13.59-9.41,15.09-18.1Zm-6.21-9.94c6.16-4.25,10.95-9.3,10.26-17.51-3.42,5.84-9.21,10.28-10.26,17.51Zm3.32-12.58c1.84-2.87,3.75-5.7,5.52-8.62,2.03-3.34,1.72-6.86.5-10.45-2.57,6.21-7.26,11.68-6.02,19.06Zm-15.41,39.15c4.52-7.25,4.95-15.43.52-22.91,2.04,7.7.76,15.31-.52,22.91Zm11.24-80.96c-2.13.04-5.09,1.86-4.92,5.03.14,2.61,2.1,4.89,4.69,5.01,2.54.12,4.95-2.32,4.98-5.05.03-2.6-2.2-4.94-4.75-4.99Zm-6.25,44.5c-.34-2.85-4.57-9.3-6.88-10.76,1.29,4.33,3.65,7.83,6.88,10.76Z"/>
    <path class="cls-1" d="m24.78,114.93c0-3.59-.12-7.18.03-10.75.16-3.59.42-7.18.94-10.73.7-4.77,2.8-8.98,5.55-12.95,2.45-3.55,4.52-7.36,6.74-11.06.2-.34.31-.73.46-1.1.3.1.59.2.89.3.81,3.09,2.05,6.15,2.35,9.29,1.32,13.47-.98,25.86-11.33,35.74-4.27,4.07-4.81,12.08-1.38,17.28,1.67-9.42,7.31-16.5,12.36-23.92.24.08.48.16.73.24.33,2.46.62,4.92.99,7.37.92,6.14,2.3,12.29.41,18.46-.98,3.19-2.08,6.38-3.48,9.41-2.32,5.02-3.07,10.11-1.81,15.51.52,2.23.86,4.49,1.21,6.76.15.97.2,2.12-1.18,2.27-1.32.14-1.52-.86-1.69-1.91-.46-2.74-1.09-5.46-1.48-8.21-.38-2.68-1.84-4.27-4.17-5.58-3.26-1.83-6.53-3.78-9.39-6.16-4.36-3.65-7.12-8.44-8.57-14-.53-2.02-1.57-3.91-2.43-5.84-.46-1.04-1.14-2-1.51-3.07-.24-.69-.1-1.5-.12-2.26.63.37,1.35.64,1.87,1.12,2.45,2.26,4.77,4.68,7.3,6.86,2.89,2.49,5.96,4.78,9.06,7.24-1.28-4.48-1.72-9.3-6.4-11.98-.98-.56-1.79-1.42-2.66-2.17-5.52-4.78-9.06-10.65-8.87-18.1.16-6.52.84-13.02,1.32-19.53.13-1.75.36-3.48.54-5.23.27-.08.54-.15.81-.23,1.3,3.01,2.59,6.03,3.92,9.02,1.38,3.11,2.81,6.21,4.43,9.8.25-.96.46-1.44.49-1.93.3-4.65.52-9.31.89-13.95.13-1.57-.21-2.47-1.74-3.25-3.35-1.71-4.63-5.65-3.33-9.28,1.12-3.14,4.82-5.33,8.01-4.74,3.58.66,6.31,3.82,6.24,7.44-.06,3.18-1.77,5.38-4.61,6.64-1.12.49-1.62,1.09-1.76,2.32-1.17,10.5-1.9,21.01-1.22,31.58.07,1.15.44,2.28.68,3.42.3-.04.59-.09.89-.13Zm2.88-8.94c2.95-4.06,5.89-7.87,8.58-11.85,3.41-5.05,3.81-10.68,2.62-16.5-.07-.34-.39-.63-.61-.95-7.47,6.32-12.58,20.41-10.59,29.3Zm12.1,10.04c-4.26,8.72-5.52,21.26-2.61,25.03,4.33-8.48,5.39-14.65,2.61-25.03Zm-23.89,14c1.87,8.95,8.04,14.17,15.78,18.61-3.15-8.38-8.83-14.03-15.78-18.61Zm4.03-21.73c.54-7.32-3.55-13-6.61-19.66-2.82,8.69,2.64,13.91,6.61,19.66Zm-7.63-5.36c-1,6.26,3.79,14.23,9.67,17.07-.46-3.78-5.45-12.67-9.67-17.07Zm15.99-31.9c-.07-2.6-2.32-4.9-4.8-4.91-2.72,0-5.1,2.68-4.95,5.59.13,2.58,2.29,4.56,4.86,4.44,2.68-.12,4.96-2.5,4.89-5.12Zm5.19,54.26c-3.65,5.93-3.05,17.04,1.16,21.66-1.29-7.18-2.31-14.37-1.16-21.66Zm3-26.32c-3.91,4.03-6.62,8.66-6.94,11.66,3.31-2.67,6.22-7.48,6.94-11.66Z"/>
    <path class="cls-1" d="m87.43,27.03c1.47-.38,2.93-.82,4.42-1.13,4.58-.96,7.36-3.72,8.24-8.29.42-2.15.56-4.35.92-6.52.09-.52.53-.98.81-1.47.31.48.79.93.9,1.46.26,1.19.31,2.42.48,3.63,1,6.99,4.54,10.64,11.44,11.83.75.13,1.5.31,2.29.8-3.81,1.36-8.1,1.34-10.92,4.81-2.72,3.35-2.81,7.49-3.38,11.51l-.77.06c-.25-.72-.54-1.43-.74-2.16-.66-2.51-1.01-5.15-1.99-7.53-1.67-4.04-5.5-5.04-9.35-5.81-.76-.15-1.53-.25-2.3-.37-.02-.27-.05-.54-.07-.81Zm11.15.03c1.25,1.19,2.4,2.28,3.55,3.38.97-1.09,1.96-2.2,2.94-3.3-1.01-1.07-1.99-2.11-3.01-3.19-1.12,1-2.25,2.01-3.48,3.11Z"/>
    <path class="cls-1" d="m174.91,50.64c-2.76,1.48-5.51,2.23-7.11,4.01-1.56,1.73-1.94,4.52-2.91,7.03-.96-2.62-1.31-5.43-2.85-7.23-1.46-1.72-4.16-2.39-5.82-3.26,1.78-1.21,4.52-2.3,6.01-4.33,1.48-2.02,1.69-4.97,2.83-7.65.56,6.22,2.72,10.95,9.86,11.43Z"/>
    <path class="cls-1" d="m140.79,45.84c-.4-.95-.83-1.54-.87-2.15-.35-5.06-2.93-7.99-8-8.64-.14-.02-.26-.18-.29-.2,2.15-1.48,4.84-2.59,6.35-4.58,1.44-1.9,1.64-4.74,2.79-7.25.47,5.94,2.13,10.69,9.22,11.14-2.4,1.43-5.08,2.27-6.51,4.09-1.47,1.87-1.73,4.69-2.68,7.61Z"/>
    <path class="cls-1" d="m39.28,62.24c-.97-2.95-1.22-5.75-2.69-7.58-1.47-1.81-4.16-2.64-5.89-3.65,1.7-1.11,4.43-2.11,5.89-4.06,1.48-1.98,1.71-4.89,2.69-8.05.42,1.05.8,1.56.81,2.07.09,5.18,2.33,8.56,7.67,9.46.27.05.51.3.65.39-2.26,1.24-5.04,1.99-6.54,3.8-1.48,1.79-1.66,4.65-2.6,7.63Z"/>
    <path class="cls-1" d="m63.5,23.09c-.39,6.25,2.16,10.23,8.45,11.1-2.34,1.41-5.02,2.26-6.43,4.08-1.45,1.87-1.66,4.7-2.58,7.68-.4-.93-.8-1.44-.8-1.95-.05-4.93-2.29-8.02-7.26-8.93-.21-.04-.38-.26-.4-.27,2.03-1.45,4.59-2.55,5.97-4.5,1.37-1.93,1.54-4.71,2.24-7.12l.81-.1Z"/>
    <path class="cls-1" d="m142,156.15c.71,1.82,1.07,3.91,2.22,5.4,1.11,1.43,3.02,2.25,4.88,3.54-3.81.96-6.42,3.23-7.18,7.47-1.19-3.69-2.4-7.07-7.05-7.67,4.7-1.24,6.35-4.57,6.63-8.95.16.07.33.14.49.22Z"/>
    <path class="cls-1" d="m62.36,172.24c-.85-1.56-1.41-3.4-2.61-4.61-1.24-1.25-3.1-1.89-5.17-3.08,4.99-.88,6.87-4.2,7.68-8.73.89,4.18,1.84,8.03,7.01,8.82-4.13,1.12-6.43,3.46-6.34,7.85-.19-.08-.38-.16-.57-.25Z"/>
    <path class="cls-1" d="m123.87,175.14c3.49.77,3.53.19,3.39-2.46-.06-1.04-1.06-2.7.96-3.26.27,1.08.72,2.14.78,3.23.16,3.02.22,6.04.18,9.06,0,.61-.67,1.22-1.03,1.83-.29-.59-.76-1.16-.82-1.78-.13-1.21-.04-2.44-.04-3.59-2.98-1.17-3.51-.84-3.54,1.99,0,.82.12,1.66-.07,2.44-.1.4-.7.8-1.15.93-.18.05-.82-.61-.83-.95-.07-4-.1-8.01-.03-12.01,0-.39.82-.76,1.26-1.14.31.39.86.77.89,1.18.11,1.52.04,3.06.04,4.54Z"/>
    <path class="cls-1" d="m105.13,179.7c0,.87.1,1.76-.05,2.6-.07.4-.62.71-.95,1.07-.27-.34-.77-.67-.78-1.01-.07-3.92-.07-7.84-.06-11.77,0-1.23.8-1.44,1.84-1.35,3.34.29,5.58,4.26,4.1,7.37-.38.8-.92,1.53-1.42,2.37.85,1.33,1.69,2.66,2.61,4.09q-1.47.22-5.28-3.36Zm-.11-8.2c0,1.52-.07,2.85.04,4.17.04.45.53,1.24.79,1.23.54-.02,1.26-.33,1.57-.76,1.16-1.63.29-3.55-2.4-4.64Z"/>
    <path class="cls-1" d="m96.02,169.38c.26.61.58,1.22.78,1.86,1.11,3.49,2.23,6.98,3.26,10.49.14.49-.16,1.11-.26,1.67-.54-.34-1.47-.6-1.55-1.02-.32-1.75-1.53-1.57-2.78-1.62-1.32-.05-2.18.25-2.42,1.74-.07.4-.89.68-1.37,1.02-.21-.38-.69-.84-.6-1.12,1.35-4.26,2.78-8.5,4.2-12.74.03-.1.28-.12.73-.29Zm0,5.83c-.22-.02-.43-.05-.65-.07-.34,1.1-.68,2.19-1.08,3.47h2.79c-.41-1.31-.73-2.35-1.06-3.4Z"/>
    <path class="cls-1" d="m84.31,171.59c-.07,1.46-.93,3,1.5,3.37.69.1,1.29.81,1.94,1.25-.66.32-1.31.66-1.98.94-.29.12-.63.1-1.18.18-.08.69-.17,1.39-.25,2.08-.18,1.4.28,2.11,1.85,2.13.71,0,2.02.6,2.02.92,0,1.58-1.32.91-2.2.99-.32.03-.65.01-.98.06-1.93.28-2.58-.47-2.44-2.47.19-2.84.03-5.7.02-8.55-.01-3.15.03-3.26,3.06-3.13.93.04,2.65.63,2.63.82-.18,1.68-1.66,1.02-2.68,1.21-.39.07-.78.12-1.3.21Z"/>
    <path class="cls-1" d="m116.72,171.98c0,3.34.04,6.52-.04,9.69-.02.61-.5,1.2-.78,1.81-.35-.61-.99-1.2-1.01-1.82-.12-2.68-.09-5.38-.05-8.07.02-1.2-.2-2.03-1.64-2.18-.48-.05-.89-.73-1.33-1.13.58-.32,1.14-.86,1.75-.93,1.2-.14,2.45-.12,3.65.04.59.08,1.11.62,1.66.95-.48.41-.94.84-1.43,1.23-.18.14-.41.22-.78.41Z"/>
    <path class="cls-1" d="m150.61,141.62c.86,2.22,2.14,4.39,2.44,6.69.18,1.41-1.13,3.02-1.85,4.5-.07.15-.81.16-1.07-.01-1.52-1-2.24-4.48-1.45-6.11.45-.93.64-1.98.91-2.99.2-.72.34-1.45.5-2.18.17.04.35.07.52.11Z"/>
    <path class="cls-1" d="m53.22,141.61c.83,2.32,1.66,4.65,2.54,7.1-.5.9-1.07,2.07-1.78,3.14-.27.41-.83.76-1.31.83-.23.04-.58-.62-.86-.96-.05-.06-.02-.17-.06-.23-1.52-2.02-1.46-3.93-.09-6.1.7-1.1.7-2.64,1.02-3.98.18.07.35.14.53.21Z"/>
    <path class="cls-1" d="m78.68,20.61c-.22,1.4-.83,2.48-2.38,2.64-1.29.14-2.74-1.2-2.74-2.56,0-1.59,1.05-2.39,2.48-2.42,1.43-.03,2.44.76,2.63,2.33Z"/>
    <path class="cls-1" d="m127.26,18.31c1.58.05,2.65,1.2,2.49,2.62-.16,1.41-.96,2.25-2.43,2.2-1.43-.05-2.36-.88-2.34-2.29.02-1.46.93-2.38,2.28-2.53Z"/>
    <path class="cls-1" d="m148.3,180.9c-.18,1.98-.87,2.87-2.31,2.95-1.38.08-2.15-.81-2.24-2.04-.11-1.43.86-2.41,2.21-2.28.89.09,1.71.98,2.34,1.38Z"/>
    <path class="cls-1" d="m60.03,181.94c-.83.56-1.71,1.62-2.48,1.55-.83-.07-2.05-1.11-2.22-1.91-.3-1.37.9-2.34,2.22-2.15.89.13,1.66,1.08,2.48,1.67,0,.28,0,.57,0,.85Z"/>
    <path class="cls-1" d="m150.4,60.12c-.74.46-1.54,1.35-2.19,1.26-.67-.1-1.2-1.17-1.79-1.81.59-.54,1.19-1.51,1.78-1.5.75,0,1.48.81,2.22,1.27,0,.26,0,.52-.01.78Z"/>
    <path class="cls-1" d="m75.66,46.33c-.74-1.3-1.54-2.09-1.47-2.78.06-.59,1.12-1.09,1.74-1.63.55.67,1.45,1.29,1.54,2.02.07.55-.88,1.23-1.8,2.39Z"/>
    <path class="cls-1" d="m101.34,197.02c-.86-1.26-1.71-1.97-1.73-2.7-.01-.6.96-1.22,1.5-1.83.6.63,1.54,1.18,1.7,1.9.12.57-.71,1.35-1.48,2.63Z"/>
    <path class="cls-1" d="m127.53,42c.77,1.26,1.6,2.01,1.47,2.54-.15.63-1.06,1.34-1.75,1.49-.36.08-1.34-1-1.34-1.55,0-.63.78-1.27,1.62-2.48Z"/>
    <path class="cls-1" d="m46.22,64.3c.99-.76,1.59-1.58,2.15-1.55.57.02,1.1.88,1.65,1.37-.51.54-.97,1.42-1.55,1.51-.54.08-1.21-.67-2.25-1.33Z"/>
    <path class="cls-1" d="m71.49,185.71c-.87.75-1.43,1.61-1.97,1.59-.57-.02-1.63-.94-1.57-1.33.1-.66.82-1.52,1.46-1.7.43-.13,1.15.76,2.08,1.44Z"/>
    <path class="cls-1" d="m51.07,174.01c-.93.71-1.56,1.53-2.05,1.46-.57-.08-1.38-.93-1.43-1.49-.04-.47.86-1.38,1.39-1.42.54-.04,1.14.75,2.08,1.46Z"/>
    <path class="cls-1" d="m156.75,29.23c-1.01.67-1.65,1.43-2.2,1.37-.56-.06-1.04-.92-1.56-1.43.52-.5,1.02-1.36,1.57-1.39.57-.03,1.19.74,2.19,1.45Z"/>
    <path class="cls-1" d="m133.27,159.25c-1.11.55-1.88,1.25-2.35,1.09-.55-.18-1.08-1.1-1.14-1.75-.03-.33,1.04-1.13,1.5-1.05.6.1,1.08.87,2,1.71Z"/>
    <path class="cls-1" d="m155.34,176.21c-.69-1.06-1.44-1.73-1.33-2.19.13-.55.96-1.16,1.58-1.28.34-.06,1.22.87,1.2,1.32-.02.58-.71,1.13-1.44,2.15Z"/>
    <path class="cls-1" d="m73.91,160.94c-.65-1.06-1.32-1.67-1.31-2.26.01-.46,1-1.36,1.31-1.26.61.19,1.39.88,1.47,1.46.07.48-.74,1.09-1.48,2.06Z"/>
    <path class="cls-1" d="m49.68,31.4c-.66-1.09-1.3-1.7-1.3-2.31,0-.41.94-1.14,1.44-1.12.48.01,1.34.83,1.31,1.24-.04.61-.73,1.17-1.45,2.19Z"/>
    <path class="cls-1" d="m177.72,156.71c-1.05.75-1.64,1.36-2.36,1.6-.25.08-1.21-1.03-1.15-1.13.43-.66.99-1.31,1.66-1.7.21-.12.9.58,1.84,1.24Z"/>
    <path class="cls-1" d="m88.81,40.61c-.97.68-1.61,1.44-2,1.33-.6-.18-1.03-.95-1.53-1.47.51-.38,1.01-1.03,1.54-1.06.5-.03,1.04.6,1.99,1.21Z"/>
    <path class="cls-1" d="m117.23,42.71c-.72-.99-1.41-1.55-1.46-2.16-.03-.38.92-1.19,1.41-1.17.48.02,1.23.79,1.3,1.31.07.47-.61,1.05-1.25,2.02Z"/>
    <path class="cls-1" d="m28.8,156.84c-.96.67-1.51,1.35-2.03,1.33-.51-.02-.99-.77-1.48-1.19.47-.47.89-1.24,1.41-1.31.51-.07,1.11.58,2.11,1.18Z"/>
    <path class="cls-2" d="m68.79,88.18c.78-.83,1.32-1.41,2.18-2.33.67.97,1.24,1.8,1.91,2.76-.51.5-1.16,1.15-1.98,1.97-.74-.85-1.36-1.55-2.1-2.4Z"/>
    <path class="cls-1" d="m183.26,70.8c.04,1.82-1.53,3.61-3.23,3.68-1.66.06-3.38-1.72-3.39-3.52-.02-1.93,1.42-3.38,3.38-3.43,1.76-.04,3.19,1.4,3.24,3.26Z"/>
    <path class="cls-1" d="m26.61,70.88c.03,1.93-1.21,3.23-3.16,3.31-1.98.08-3.17-.96-3.23-2.84-.08-2.2,1.32-3.86,3.23-3.84,1.84.02,3.13,1.4,3.16,3.36Z"/>
  </g>
  <polygon class="cls-3" points="102.02 11.76 16.45 159.96 187.58 159.96 102.02 11.76"/>
  <line class="cls-4" x1="20.22" y1="126.89" x2="183.26" y2="126.89"/>
  <path class="cls-2" d="m106.8,101.8c-.94-.75-1.57-1.59-1.96-1.5-.61.16-1.29.87-1.5,1.5-.1.32.78,1.38,1.18,1.35.64-.04,1.24-.7,2.28-1.36Z"/>
  <path class="cls-2" d="m123.36,116.95c-.94-.75-1.57-1.59-1.96-1.5-.61.16-1.29.87-1.5,1.5-.1.32.78,1.38,1.18,1.35.64-.04,1.24-.7,2.28-1.36Z"/>
</svg>