<?xml version="1.0" encoding="UTF-8"?>
<svg id="Layer_1" data-name="Layer 1" xmlns="http://www.w3.org/2000/svg" viewBox="0 0 200 200">
  <defs>
    <style>
      .cls-1 {
        stroke-width: 0px;
      }

      .cls-2 {
        fill: none;
        stroke: #231f20;
        stroke-miterlimit: 10;
        stroke-width: 3px;
      }
    </style>
  </defs>
  <g>
    <path class="cls-1" d="m17.67,152.98c-1.12-2.73-1.41-5.58-.6-8.83.42-1.69.85-2.32,2.65-2.22,7.83.42,14.85,5.61,17.42,13.04.06.17-.12.42-.25.79-2.42-.95-4.81-1.78-7.11-2.82-2.29-1.04-4.5-2.28-6.74-3.43-.2.21-.41.42-.61.63.42.78.66,1.79,1.31,2.29,1.8,1.39,3.66,2.74,5.68,3.77,2.32,1.19,4.89,1.89,7.22,3.06,1.41.71,2.88,1.69,3.8,2.93,2.42,3.27,3.9,7.02,4.06,11.13.05,1.25.45,2.09,1.52,1.91.59-.1,1.39-1.32,1.39-2.03,0-1.53-.25-3.12-.74-4.57-.87-2.52-2-4.95-3.17-7.77,1.03-.16,1.83-.23,2.61-.4,3.46-.76,6.64-2.03,8.24-5.5.43-.92.75-2.8.38-3.03-1.5-.91-1.92.81-2.69,1.63-.73.77-1.41,1.59-2.21,2.28-1.62,1.38-3.52,1.82-5.63,1.66.46-5.12,2.63-7.69,7.35-8.86.47-.12,1-.21,1.37-.49.35-.26.81-.83.73-1.12-.13-.46-.62-1-1.07-1.13-.58-.18-1.3-.09-1.92.06-4.56,1.05-7.47,3.84-8.67,8.39-.26.97-.48,1.96-.72,2.94-3.91-10.93-10.69-17.94-22.8-18.25.73-4.53,3.3-6.89,6.55-7.52,5.12-1,8.19-4.15,9.15-9.31.08-.45.31-.87.32-.89,3.56-.59,6.84-.85,9.96-1.7,4.13-1.14,6.82-4.1,8.16-8.15.24-.73-.22-1.7-.35-2.55-.69.51-1.7.87-2.01,1.55-2.27,4.99-6.39,6.89-11.85,7.31.11-.92.12-1.71.31-2.45,1.93-7.18,6.45-11.97,13.43-14.47.92-.33,1.91-.57,2.71-1.09.53-.34.78-1.11,1.15-1.69-.63-.26-1.24-.59-1.9-.74-.36-.09-.8.09-1.2.19-9.36,2.43-16.23,10.18-17.52,19.72-.12.92-.43,1.82-.66,2.74-4.6-1.42-9.92.48-12.46,4.51-1.16,1.85-1.84,3.99-2.75,5.99-.19.42-.47.81-.96,1.65.12-5.08,1.81-10.8,4.52-14.02,2.36-2.8,5.15-5.22,7.73-7.83,1.24-1.26,2.44-2.56,2.49-5.19-4.55,1.04-8.81,2.02-13.27,3.05,2.4-4.18,5.72-6.96,10.21-8.4,1.42-.45,2.78-1.1,4.24-1.68-.8-1.98-2.09-1.74-3.25-1.46-6.5,1.58-11.38,5.18-14,11.51-.28.68-.61,1.33-.91,1.99-.78-7.89,2.41-13.94,5.82-19.15,1.44-2.2,3.54-3.48,6.53-2.69,1.54.41,3.26.25,4.89.17,5.37-.25,12.67-5.85,14.18-11.05-8.89-.91-16.78.84-23.39,8.05,1.69-7.11,7.66-12.57,14.03-13.27,6.77-.74,11.11-4.74,14.19-10.43.96-1.76.47-2.4-1.48-2.3-1.14.06-2.29.15-3.43.25-7.49.7-13.12,4.21-16.59,10.99-.29.57-.71,1.09-1.17,1.54-4.65,4.54-8.22,9.72-9.83,16.12-.22.89-.8,1.69-1.48,3.06-.08-.89-.16-1.13-.12-1.36,1.25-7.3,3.86-14.01,8.64-19.76,6.01-7.24,6.02-15.21,2.9-23.55-.26-.69-.94-1.23-1.28-1.65-1.63,1.98-2.93,3.72-4.39,5.32-4.09,4.47-5.71,9.65-4.61,15.62.32,1.77,1,3.47,1.26,5.24.16,1.06.13,2.34-.33,3.26-2.65,5.24-4.31,10.76-5,16.58-.93,7.94-3.12,15.74-2.6,23.84.03.44-.14.89-.22,1.33-.53-.55-.82-1.13-.87-1.73-.38-4.8-.9-9.61-1.01-14.42-.1-4.24.3-8.5.38-12.75,0-.55-.64-1.11-.99-1.67-.37.46-.98.87-1.08,1.38-.46,2.33-.94,4.67-1.11,7.02-.84,12.09.88,23.82,5.08,35.19.67,1.83,1.61,3.73,1.61,5.59,0,3.36-.63,6.72-.99,10.08-.24.02-.47.04-.71.06-.05-.1-.1-.2-.15-.31.02,3.76.29,8.05,4.67,8.26Zm13.34-30.78c-.52,3.94-2.14,5.3-7.47,6.48.15-2.92,3.37-5.77,7.47-6.48Zm9.55-41.64c-2.12,3.96-7.17,5.83-11.58,4.39,3.36-2.91,7.03-4.44,11.58-4.39Zm6.65-17.47c-2.48,5.14-6.88,6.1-11.74,6.49,1.85-4.06,6.55-6.66,11.74-6.49Zm-19.45-11.77c2.64,4.6,1.04,12.53-3.73,18.05-3.65-5.89-1.35-14.63,3.73-18.05Zm-1.43,58.49c-2.26,2.78-4.79,5.25-6.51,8.19-1.74,2.96-2.68,6.38-4.01,9.71-2.65-6.04,0-17.25,10.52-17.91Z"/>
    <path class="cls-1" d="m136.82,118.35c-.03,15.72-10.12,28.91-25.92,32.81-14.89,3.68-28.43,1.03-38.67-11.28-9.46-11.37-10.04-24.22-4.91-37.63,2.36-6.17,6.11-11.55,9.98-16.83,7.47-10.19,14.33-20.76,18.62-32.7,1.74-4.87,2.34-10.14,3.45-15.24.03-.16-.04-.36.04-.48.38-.61.79-1.2,1.2-1.8.36.56.92,1.09,1.05,1.7.62,2.79,1.06,5.62,1.67,8.41,2.21,10.06,6.9,18.98,12.53,27.51,5.18,7.84,10.39,15.67,15.22,23.73,3.98,6.64,5.77,14.02,5.73,21.8Zm-35.03-31.69c-.26.41-.68.89-.9,1.46-2.2,5.63-5.73,10.43-9.31,15.21-1.71,2.29-3.33,4.66-4.77,7.13-3.91,6.7-5.36,13.82-3.29,21.45,1.7,6.28,5.15,11.16,11.46,13.39,8.52,3,17.36-1.11,21.55-9.79,3.62-7.49,2.87-14.92-.41-22.26-1.06-2.38-2.36-4.67-3.61-6.96-3.54-6.52-7.11-13.02-10.72-19.63Zm12.25,57.13c.11.12.22.24.33.36.28-.08.61-.1.85-.25,6.17-4.01,10.12-9.76,12.12-16.7,3.06-10.61.74-20.42-5.48-29.33-6.81-9.77-15.41-18.27-20.59-29.2-.61-1.28-1.52-1.13-2.15.07-.45.86-.75,1.8-1.14,2.7-3.66,8.25-9.24,15.19-15.02,21.99-6.37,7.51-10.71,15.8-10.29,26.03.39,9.54,4.12,17.38,11.45,23.48.8.67,1.82,1.07,2.74,1.6.18-.24.36-.48.54-.72-1.21-1.23-2.42-2.46-3.63-3.69-9.84-10.1-12-23.99-5.28-36.36,2.09-3.84,4.83-7.39,7.64-10.77,5.25-6.31,10.25-12.75,13.57-20.32.13-.3.16-.65.32-1.31,2.27,3.51,3.88,6.37,5.83,8.97,4.12,5.49,8.36,10.89,12.65,16.25,10.7,13.38,11.24,31.79-2.39,44.76-.77.74-1.38,1.64-2.07,2.47Z"/>
    <path class="cls-1" d="m189,143.03c-.24.51-.48,1.03-.73,1.54-.58-1.47-.94-2.88-1.12-4.32-.35-2.89-1.14-5.7-.05-8.7,1.51-4.14,2.7-8.4,3.91-12.65,2.91-10.27,2.95-20.67,1.15-31.12-.14-.79-.54-1.53-.82-2.3-.31,0-.62.02-.93.03-.17,1.08-.52,2.17-.47,3.24.4,8.01.88,16.02-.34,24-.14.93-.5,1.84-.76,2.75-.17-.05-.34-.09-.5-.14,0-2.1.22-4.23-.04-6.29-.63-4.86-1.71-9.66-2.22-14.52-.73-6.98-2.35-13.66-5.33-20.04-.45-.96-.44-2.39-.1-3.43,1.56-4.72,2.45-9.59.24-14.13-2.09-4.3-5.08-8.16-7.75-12.31-1.98,2.04-3.61,6.68-3.99,10.1-.73,6.53,2.33,11.59,5.84,16.69,2.43,3.53,4.3,7.48,6.05,11.41,1.03,2.3,1.34,4.92,1.97,7.4-.25.09-.5.17-.75.26-.43-.92-.99-1.81-1.25-2.78-1.22-4.43-3.65-8.19-6.4-11.77-2.28-2.97-4.55-5.94-6.83-8.9-2.92-3.8-6.7-6.2-11.48-6.88-1.94-.28-3.9-.46-5.86-.59-.58-.04-1.61.12-1.7.42-.19.6-.1,1.52.27,2.02,1.49,2.04,3.02,4.08,4.74,5.93,2.51,2.7,5.83,4.01,9.42,4.2,3.91.2,6.86,1.83,9.08,4.93,1.52,2.13,2.97,4.3,4.41,6.49.17.25.07.67.14,1.55-3.47-3.3-6.77-6-11.05-6.97-4.05-.92-8.13-1.6-12.3-.23,1.09,1.67,2.34,2.94,3.48,4.3,4.53,5.41,10.22,7.44,17.1,5.85,1.47-.34,2.56-.04,3.53,1,5.46,5.91,7.95,12.95,8.19,20.86-.21.06-.42.12-.64.19-.34-.8-.65-1.62-1.04-2.41-2.94-5.97-7.79-9.53-14.18-11.07-1.24-.3-2.61-.48-3.23,1.29,2.85,1.29,5.65,2.39,8.29,3.81,2.71,1.46,4.91,3.55,6.2,6.5-4.12-1.81-8.35-2.44-12.88-2.2.46,1.36.98,2.56,1.8,3.49,1.73,1.95,3.6,3.79,5.45,5.64,4.33,4.31,6.98,9.44,7.58,15.55.05.48-.16.98-.24,1.47-1.16-2.19-1.78-4.47-2.78-6.57-2.01-4.2-5.92-6.32-10.35-5.96-1.32.11-1.93.64-1.83,2,.39,5.34,3.82,9.47,9.2,10.33,3.94.63,5.28,3.3,6.53,6.82-12.46.61-20.09,7.09-23.61,18.84-.42-1.04-.55-1.97-.71-2.89-.85-4.89-4.35-8.33-9.21-8.83-.8-.08-1.68.55-2.52.86.64.57,1.22,1.22,1.93,1.67.46.29,1.11.25,1.65.42,3.67,1.13,6.03,4.94,5.4,8.98-3.2-.54-5.75-1.93-7.66-4.64-.52-.73-1.59-1.08-2.41-1.6.01,1.03-.31,2.23.1,3.08,1.69,3.55,4.76,5.25,8.57,5.73.92.12,1.84.21,3.02.35-.52,1.03-.95,1.64-1.16,2.32-1,3.26-1.99,6.52-2.88,9.81-.33,1.2-.12,2.47,1.42,2.57,1.48.1,1.41-1.13,1.58-2.24.31-2.09.63-4.21,1.3-6.2,1.52-4.51,4.38-7.75,9.19-9.03,1.89-.5,3.8-1.16,5.48-2.12,1.81-1.03,3.42-2.42,4.98-3.81.41-.36.32-1.29.45-1.96-.73.09-1.54,0-2.18.29-4.08,1.9-8.13,3.87-12.51,5.98,1.98-8.74,10.9-14.81,19.13-14.56.51.02,1.3.91,1.43,1.5.55,2.63.86,5.22.32,7.66.08,0,.15,0,.25,0,1-2.99,3.98-4.99,4-7.97Zm-11.34-73.85c-5.19-4.18-7.09-12.47-4-17.96,5.4,4.68,7.09,12.49,4,17.96Zm-22.71-5.77c3.3-.74,8.63,2.09,10.61,5.64-3.65,1.11-9.56-2.03-10.61-5.64Zm5.64,16.83c4.64.49,8.49,1.61,11.71,4.63-3.6,1.75-9.04-.27-11.71-4.63Zm10.64,41.82c3.26,1.24,6.12,2.68,7.18,6.35-3.84.69-7.55-2.49-7.18-6.35Zm3.79-11.84c8.27.25,14.16,10.14,10.22,17.44-.96-7.5-5.55-12.47-10.22-17.44Z"/>
    <path class="cls-1" d="m11.85,182.94c.17.04.33.08.5.12-.2.82-.23,1.73-.64,2.42m-25.43-31.3"/>
    <path class="cls-1" d="m60.67,35.74c-1.64,3.6,0,7.31-1.7,10.56-2.04-3.23-.8-6.88-1.58-10.55-1.75.98-3.33,1.87-4.9,2.74q-1.01-1.48,3.21-4.97c-1.68-.2-2.94-.4-4.21-.49-.97-.07-1.97.09-2.93-.02-.52-.06-.99-.5-1.48-.77.46-.37.88-.94,1.4-1.06,1.02-.22,2.1-.18,3.3-.26.05-.81.09-1.55.14-2.54,1.91.98,3.61,1.85,5.75,2.94,0-3.32.07-5.91-.03-8.49-.04-1.15-.09-2.44,1.26-2.41,1.35.03,1.21,1.32,1.16,2.47-.12,2.75-.04,5.52-.04,8.89,2.27-1.24,4.14-2.25,6.27-3.4.21.97.37,1.69.55,2.55.77.06,1.61,0,2.37.24.6.19,1.09.74,1.62,1.14-.57.28-1.12.79-1.7.81-2.07.1-4.14.04-6.22.04-.05.25-.09.49-.14.74.94.68,1.96,1.29,2.8,2.09.43.41.52,1.17.76,1.77-.63.12-1.39.53-1.86.31-1.3-.61-2.48-1.49-3.8-2.32Z"/>
    <path class="cls-1" d="m134.58,28.51c1.94.98,3.57,1.79,5.9,2.97,0-2.73,0-4.88,0-7.02,0-.9-.23-1.85,0-2.68.14-.53.93-.88,1.43-1.31.35.54.98,1.07,1,1.62.1,2.98.05,5.96.05,9.35,2.07-1.13,3.94-2.15,6.02-3.28.16,1.09.28,1.86.38,2.55,1.54.35,3,.68,4.47,1.01-.03.28-.06.56-.08.85-2.41,1.46-5.35-.18-7.83.86-.28,2.35,4.82,1.51,2.56,5.01-1.69-.84-3.33-1.66-5.45-2.72-.13,3.62-.25,6.94-.37,10.26l-1.14.05c-1.94-3-.33-6.69-1.33-10.28-1.72.96-3.28,1.83-4.84,2.7q-.89-1.93,2.78-4.48c-1.87-1.64-4.11-.43-6.06-.9-.37-.09-.87.26-1.19.12-.45-.19-.79-.64-1.18-.97.34-.29.64-.76,1.03-.85.7-.17,1.46-.09,2.2-.16,1.45-.14,2.32-.76,1.67-2.69Z"/>
    <path class="cls-1" d="m144.71,98.89c.99-2.09,2.38-1.61,3.58-1.28,8.04,2.23,13.64,7.18,16.42,15.1.88,2.5,1.39,5.13,2.07,7.69-6.91,2.37-16.21-2.35-18.16-9.28-.18-.63.25-1.44.4-2.16.64.34,1.47.53,1.9,1.04,1.2,1.42,2.13,3.08,3.36,4.47,2.22,2.5,5.22,3.1,8.73,3.25-.44-3.32-1.48-6.16-3.19-8.74-2.77-4.18-6.68-6.86-11.4-8.45-1.25-.42-2.43-1.07-3.7-1.64Z"/>
    <path class="cls-1" d="m85.48,32.33c3.59.05,6.14,2.82,6.07,6.6-.06,3.42-2.75,6.23-5.98,6.24-3.83.01-6.64-2.83-6.62-6.7.02-3.58,2.8-6.19,6.53-6.14Zm2.99,6.14c-.03-1.73-1.63-3.24-3.37-3.2-1.79.05-3.07,1.5-3.04,3.44.04,1.96,1.35,3.23,3.26,3.14,1.82-.09,3.18-1.55,3.14-3.38Z"/>
    <path class="cls-1" d="m64.66,177.3c0,1.77.13,3.23-.06,4.66-.1.73-.77,1.39-1.18,2.08-.45-.67-1.18-1.3-1.29-2.03-.21-1.42-.06-2.88-.06-4.64-1.33,0-2.38.12-3.39-.04-.6-.1-1.12-.64-1.68-.98.55-.48,1.03-1.2,1.66-1.37.98-.27,2.07-.18,3.38-.25,0-1.11-.14-2.09.05-3,.12-.58.74-1.05,1.14-1.56.46.49,1.16.91,1.33,1.48.26.9.17,1.91.24,3.05,1.31.11,2.54.1,3.7.36.47.11.81.82,1.21,1.26-.41.33-.8.9-1.24.95-1.12.14-2.26.05-3.83.05Z"/>
    <path class="cls-1" d="m107.86,183.03c-1.62.7-2.17-.22-2.7-1.16-.47-.81-.92-1.63-1.85-2.35,0,.92.07,1.84-.03,2.74-.04.39-.45.73-.68,1.1-.39-.33-1.1-.66-1.11-.99-.07-3.99-.07-7.98.05-11.96.01-.34,1.05-.92,1.61-.92,3.09,0,5.76,4.16,4.01,6.79-1.46,2.2-1.02,3.67.23,5.44.22.31.28.73.49,1.3Zm-4.48-6.26c.27.12.54.24.81.36.54-.94,1.52-1.9,1.5-2.83-.02-1.07-.41-2.61-2.31-2.53v5Z"/>
    <path class="cls-1" d="m137.11,177.5c-1.51-.07-2.66,0-3.75-.22-.52-.1-.95-.72-1.42-1.1.45-.4.85-1.04,1.36-1.14,1.09-.22,2.24-.17,3.59-.24.05-.98-.06-1.9.2-2.71.2-.64.86-1.13,1.31-1.68.4.52,1.19,1.08,1.13,1.54-.32,2.59.81,3.34,3.21,3.08.48-.05,1.04.73,1.57,1.13-.52.39-1,.89-1.59,1.14-.41.18-.96.07-1.45.04-1.25-.08-1.79.48-1.73,1.74.05,1.06.14,2.15-.06,3.17-.13.66-.75,1.23-1.16,1.84-.41-.63-1.09-1.23-1.17-1.9-.18-1.43-.06-2.91-.06-4.68Z"/>
    <path class="cls-1" d="m113.35,171.54v3.61c.87,0,1.68-.09,2.44.04.36.06.65.56.96.86-.32.29-.6.75-.98.85-2.91.79-2.91.77-2.33,4.49.82.04,1.71,0,2.56.17.36.07.64.56.96.85-.3.32-.58.87-.91.91-1.21.12-2.47.21-3.65,0-.46-.08-1.11-.93-1.13-1.45-.12-3.67-.14-7.34-.05-11.01.01-.5.69-1.31,1.17-1.4,1.1-.21,2.28-.15,3.41-.02.43.05.81.58,1.22.89-.38.34-.71.85-1.14.97-.76.2-1.58.16-2.53.23Z"/>
    <path class="cls-1" d="m88.49,171.3c-.05,1.05-.09,1.69-.09,2.34,0,.23.12.46.2.73.92.28,1.84.55,2.75.86.09.03.1.29.27.83-.94.26-1.87.53-2.94.83-.88,2.02.52,4.73-.93,6.67-.28-.05-.57-.1-.85-.14-.1-.44-.29-.88-.29-1.32-.03-3.51.03-7.02-.05-10.52-.04-1.68.57-2.44,2.28-2.29.97.08,1.97.01,2.93.17.37.06.66.57.99.88-.38.32-.74.86-1.16.93-.94.14-1.91.04-3.08.04Z"/>
    <path class="cls-1" d="m116.15,32.61c-1.99.02-3.48-1.35-3.53-3.24-.05-1.79,1.35-3.25,3.16-3.3,1.9-.06,3.23,1.19,3.29,3.1.06,1.99-1.16,3.42-2.93,3.44Z"/>
    <path class="cls-1" d="m140.54,63.78c.05,1.77-1.27,3.18-2.99,3.19-1.68,0-2.95-1.21-3-2.9-.06-1.75,1.31-3.23,2.98-3.23,1.59,0,2.97,1.34,3.02,2.94Z"/>
    <path class="cls-1" d="m96.43,183.42c-.13-.73-.36-1.45-.38-2.18-.07-3.35-.12-6.71-.07-10.06,0-.57.55-1.13.84-1.69.36.51,1.01,1,1.03,1.52.1,3.6.09,7.2.03,10.8,0,.57-.46,1.14-.71,1.71-.25-.03-.49-.06-.74-.09Z"/>
    <path class="cls-1" d="m11.54,76.4c.02-1.64,1.09-2.73,2.73-2.76,1.77-.04,2.85,1.07,2.81,2.9-.03,1.6-1.24,2.89-2.7,2.88-1.58-.01-2.86-1.37-2.84-3.02Z"/>
    <path class="cls-1" d="m184.01,76.75c.01-1.74,1.25-3.05,2.73-3.07,1.45-.02,2.72,1.36,2.68,2.91-.03,1.47-1.43,2.84-2.88,2.74-1.67-.12-2.39-1.18-2.54-2.57Z"/>
    <path class="cls-1" d="m157.44,52.8c-1.38-.18-2.38-.9-2.28-2.5.09-1.51,1.02-2.42,2.54-2.36,1.52.06,2.4,1.02,2.38,2.54-.01,1.6-1.02,2.28-2.65,2.31Z"/>
    <path class="cls-1" d="m46.1,50.85c-.87.66-1.66,1.69-2.62,1.88-1.3.27-2.32-.64-2.51-2.06-.18-1.3,1.07-2.77,2.34-2.48.99.22,1.84,1.09,2.76,1.68.01.33.02.66.04.98Z"/>
    <path class="cls-1" d="m130.36,57.49c-.9.62-1.73,1.61-2.7,1.79-1.49.27-2.16-1-2.21-2.32-.05-1.3.78-2.37,2.07-2.15,1,.17,1.87,1.12,2.8,1.72.01.32.02.64.03.96Z"/>
    <path class="cls-1" d="m75.84,57.66c-1-1.35-2-2.11-2.13-3-.22-1.41.86-2.21,2.28-2.14,1.31.07,2.26.95,2.01,2.2-.18.89-1.15,1.63-2.16,2.94Z"/>
    <path class="cls-1" d="m73.21,74.03c-.81.56-1.54,1.39-2.43,1.61-1.36.33-2.13-.71-2.19-1.95-.07-1.29.79-2.3,2.06-2.13.9.12,1.69,1.01,2.53,1.56l.04.91Z"/>
    <path class="cls-1" d="m137.71,85.97c-1.26.86-2.1,1.86-2.67,1.72-.79-.2-1.37-1.24-2.05-1.92.72-.61,1.4-1.6,2.19-1.71.59-.08,1.34.97,2.52,1.91Z"/>
    <path class="cls-1" d="m103.52,194.65c-1.37.87-2.17,1.78-2.93,1.74-.62-.03-1.72-1.25-1.64-1.81.11-.76,1.1-1.89,1.78-1.94.71-.04,1.49,1,2.79,2Z"/>
    <path class="cls-1" d="m65.48,88.15c-.5-.79-1.31-1.55-1.37-2.37-.04-.5,1.29-1.67,1.62-1.54.81.32,1.72,1.11,1.94,1.9.14.51-.85,1.35-1.33,2.03l-.84-.02Z"/>
    <path class="cls-1" d="m51.57,89.62c-.49-.7-1.4-1.43-1.36-2.1.04-.71.93-1.84,1.56-1.91.61-.07,1.85.92,1.9,1.52.07.78-.77,1.64-1.21,2.46-.29.01-.59.02-.88.04Z"/>
    <path class="cls-1" d="m167.15,135.89c-1.26.94-1.97,1.89-2.63,1.86-.65-.03-1.74-1.04-1.76-1.64-.01-.64.95-1.71,1.61-1.82.64-.1,1.44.78,2.78,1.6Z"/>
    <path class="cls-1" d="m100.7,20.8c.96,1.11,1.99,1.78,1.96,2.4-.03.69-1.1,1.92-1.6,1.87-.79-.09-1.81-.94-2.08-1.7-.17-.47.87-1.37,1.71-2.57Z"/>
    <path class="cls-1" d="m55.07,133.64c.85,1.23,1.76,2.01,1.63,2.5-.2.73-1.07,1.59-1.79,1.73-.45.09-1.59-1.03-1.6-1.62-.01-.69.88-1.39,1.76-2.62Z"/>
    <path class="cls-1" d="m65.59,59.72c.99,1.16,1.99,1.84,1.92,2.37-.1.73-.92,1.63-1.63,1.88-.4.14-1.66-.86-1.71-1.43-.07-.71.71-1.5,1.43-2.82Z"/>
    <path class="cls-1" d="m149.81,85.22c.44.73,1.24,1.49,1.2,2.19-.03.58-1.2,1.65-1.63,1.54-.75-.19-1.7-1.04-1.83-1.74-.1-.58.88-1.35,1.38-2.03.29.01.58.03.87.04Z"/>
    <path class="cls-1" d="m46.91,125.85c.84,1.31,1.67,2.03,1.63,2.7-.03.59-1.12,1.64-1.6,1.56-.73-.11-1.77-.95-1.87-1.61-.09-.6.89-1.36,1.84-2.65Z"/>
    <path class="cls-1" d="m37.58,133.5c.84,1.35,1.68,2.1,1.65,2.83-.02.54-1.18,1.47-1.78,1.44-.57-.03-1.42-1.07-1.49-1.74-.06-.59.77-1.28,1.62-2.53Z"/>
    <path class="cls-1" d="m156.64,128.45c-1.14.79-1.89,1.7-2.43,1.59-.72-.15-1.29-1.09-1.92-1.69.61-.53,1.2-1.43,1.83-1.47.65-.04,1.34.79,2.51,1.56Z"/>
    <path class="cls-1" d="m116.59,43.4c-1.22.76-1.96,1.58-2.58,1.5-.62-.08-1.11-1.07-1.66-1.66.6-.51,1.19-1.4,1.82-1.43.62-.04,1.29.8,2.42,1.59Z"/>
    <path class="cls-1" d="m141.19,146.31c-1.13.88-1.8,1.8-2.38,1.75-.61-.05-1.4-.96-1.61-1.64-.11-.35.88-1.44,1.4-1.46.67-.03,1.37.67,2.58,1.36Z"/>
    <path class="cls-1" d="m131.8,74.88c-1.15.83-1.77,1.62-2.44,1.66-.52.03-1.61-.96-1.54-1.33.12-.68.84-1.64,1.45-1.75.58-.11,1.34.7,2.53,1.42Z"/>
    <path class="cls-1" d="m103.13,11.02c-1.31.66-2.14,1.42-2.68,1.25-.61-.19-1.25-1.19-1.3-1.89-.03-.4,1.12-1.29,1.64-1.23.65.08,1.22.92,2.34,1.87Z"/>
    <path class="cls-1" d="m149.75,133.85c.77,1.25,1.5,1.93,1.48,2.58-.01.55-1.08,1.59-1.39,1.49-.7-.21-1.58-.95-1.69-1.58-.09-.56.77-1.28,1.6-2.5Z"/>
    <path class="cls-1" d="m134.28,152.68c-1.02.88-1.61,1.78-2.11,1.73-.67-.06-1.27-.86-1.9-1.35.47-.56.9-1.53,1.42-1.58.66-.07,1.4.61,2.59,1.2Z"/>
    <path class="cls-1" d="m62.85,148.81c-.8-1.18-1.64-1.89-1.57-2.48.08-.59,1.02-1.36,1.68-1.48.4-.07,1.41.94,1.41,1.46,0,.66-.76,1.32-1.53,2.5Z"/>
    <path class="cls-1" d="m116.76,15.47c-.69-1.09-1.49-1.81-1.35-2.26.19-.66,1.05-1.13,1.62-1.68.5.54,1.43,1.11,1.39,1.6-.06.67-.85,1.28-1.66,2.34Z"/>
    <path class="cls-1" d="m39.31,39.4c-1.01.8-1.61,1.64-2.24,1.67-.51.03-1.57-.99-1.51-1.4.1-.65.85-1.49,1.5-1.68.44-.13,1.17.7,2.25,1.41Z"/>
    <path class="cls-1" d="m164.84,37.38c.74.83,1.69,1.48,1.6,1.9-.15.68-.99,1.21-1.53,1.8-.57-.57-1.43-1.06-1.6-1.73-.11-.43.82-1.11,1.53-1.97Z"/>
    <path class="cls-1" d="m136.17,164.07c-.83-1.07-1.65-1.67-1.7-2.33-.04-.48.94-1.43,1.47-1.44.55,0,1.44.81,1.56,1.4.1.52-.64,1.22-1.33,2.37Z"/>
    <path class="cls-1" d="m68.95,162.09c-1.07.68-1.72,1.42-2.3,1.37-.6-.05-1.14-.87-1.7-1.35.59-.53,1.13-1.37,1.8-1.48.5-.09,1.17.74,2.21,1.46Z"/>
    <path class="cls-1" d="m71.3,153.05c-.94.67-1.56,1.46-2.1,1.41-.59-.06-1.1-.89-1.65-1.39.56-.55,1.06-1.42,1.71-1.55.46-.1,1.12.8,2.04,1.53Z"/>
    <path class="cls-1" d="m157.03,94.1c.99-.74,1.6-1.53,2.12-1.49.6.05,1.13.87,1.69,1.35-.51.52-.97,1.39-1.55,1.47-.54.08-1.2-.67-2.26-1.34Z"/>
    <path class="cls-1" d="m43.61,94.08c-.99.72-1.61,1.52-2.13,1.46-.58-.06-1.08-.91-1.61-1.42.51-.52.98-1.41,1.54-1.47.55-.06,1.19.72,2.21,1.43Z"/>
    <path class="cls-1" d="m82.16,61.93c.64,1.03,1.37,1.68,1.28,2.2-.09.56-.93,1-1.45,1.49-.48-.51-1.32-1.02-1.33-1.54-.01-.56.75-1.15,1.5-2.15Z"/>
    <path class="cls-1" d="m86.05,12.93c-.93.78-1.53,1.64-2.02,1.59-.56-.06-1.29-.87-1.46-1.49-.1-.35.77-1.36,1.22-1.37.6-.02,1.22.64,2.26,1.27Z"/>
    <path class="cls-1" d="m102.78,160.08c-1.1.74-1.69,1.44-2.3,1.45-.47.01-1.31-.82-1.33-1.31-.02-.48.76-1.37,1.23-1.39.6-.04,1.25.61,2.39,1.25Z"/>
    <path class="cls-1" d="m120.94,63.88c-1.05.7-1.65,1.4-2.25,1.4-.45,0-1.2-.87-1.25-1.41-.04-.42.79-1.31,1.22-1.3.62.01,1.22.66,2.27,1.31Z"/>
  </g>
  <polygon class="cls-2" points="100.6 12.1 15.04 160.3 186.16 160.3 100.6 12.1"/>
</svg>