<?xml version="1.0" encoding="UTF-8"?>
<svg id="Layer_1" data-name="Layer 1" xmlns="http://www.w3.org/2000/svg" viewBox="0 0 200 200">
  <defs>
    <style>
      .cls-1 {
        stroke-width: 0px;
      }

      .cls-2 {
        fill: none;
        stroke: #231f20;
        stroke-miterlimit: 10;
        stroke-width: 3px;
      }
    </style>
  </defs>
  <g>
    <path class="cls-1" d="m65.39,111.18c.07-11.39,5.07-20.61,12.22-28.96,3.83-4.47,7.68-8.93,11.25-13.59,4.69-6.13,7.73-13.16,10.39-20.35.24-.64.8-1.15,1.21-1.72.51.54,1.25,1,1.51,1.64,3.31,8.33,6.99,16.46,12.64,23.51,3.9,4.85,8.07,9.48,11.94,14.35,4.44,5.58,7.82,11.81,8.81,18.93,2.9,20.82-8.59,37.52-29.66,40.94-7.59,1.23-15.14.43-21.96-3.19-9.49-5.05-15.27-13.14-17.38-23.72-.51-2.58-.67-5.22-.99-7.84Zm35.19-47.23c-.39.62-.65.92-.8,1.28-1.82,4.34-4.18,8.35-7.2,11.95-3.61,4.3-7.47,8.4-10.91,12.82-8.75,11.24-9.25,25.49-1.23,36.38,9.49,12.89,25.23,12.71,35.09,5.25,9.92-7.51,12.44-17.74,9.93-29.51-1.45-6.8-5.58-12.06-10.06-17.12-4.21-4.75-8.57-9.41-11.65-15.05-1.03-1.89-2.01-3.8-3.16-6.01Zm-13.08,73.22c-.6-1-1.15-1.92-1.79-2.99-.72,1.16-1.31,2.1-1.93,3.09.66.61,1.23,1.15,1.91,1.78.6-.62,1.09-1.14,1.8-1.88Z"/>
    <path class="cls-1" d="m39.31,106.73c1.05,5.59.74,10.61-2.06,15.43-3.48,5.99-2.26,13.96,2.95,19.36.06-.93.13-1.6.14-2.28.03-2.29-.08-4.58.07-6.86.34-5.25,4.26-7.54,7.94-8.96,1.25-.48,1.51.48,1.67,1.45.45,2.69-.05,5.21-1.42,7.55-.37.63-.72,1.33-1.24,1.82-6.94,6.43-5.06,13.86-2.35,21.31.75,2.05,2.13,3.86,3.07,5.85.32.68.55,1.92.19,2.3-1,1.06-1.78-.07-2.36-.77-4.7-5.65-9.46-11.26-13.97-17.06-1.55-2-3.47-3.16-5.65-4.08-4.19-1.76-8.05-4.03-11.24-7.29-1.16-1.19-2.11-2.57-3.16-3.86.21-.24.42-.47.64-.71,2.38,1.81,4.68,3.74,7.16,5.39,2.49,1.66,5.17,3.04,7.76,4.54.14-.12.28-.24.41-.37-.16-.46-.28-.94-.49-1.38-.57-1.18-1.33-2.28-1.74-3.51-1.24-3.69-3.72-5.96-7.34-7.28-7.68-2.81-11.07-8.8-11.71-16.58-.22-2.73-.04-5.5.22-8.42,4.68,4.31,10.08,7.79,13.54,13.38.16-4.15-.21-8.27-2.74-11.53-2.38-3.06-5.47-5.57-8.32-8.4,2.75-.51,4.91.86,11.02,6.95-.68-4.63.49-8.87-3.5-12.45-7.56-6.77-8.35-19.69-2.21-27.43.56-.7,1.32-1.24,2.2-1.74-3.08,8.69,1.88,15.92,3.45,23.7.25,0,.5,0,.75-.01.08-.9.2-1.81.23-2.71.27-6.96.5-13.93,3.21-20.49,2.43-5.9,5.97-11.09,10.53-15.52,1.5-1.45,2.39-2.6.93-4.5-.27-.35-.29-.89-.44-1.39,1.1-.57,2.09-1.08,3.17-1.64.56.43,1.12.86,1.9,1.45,1.75-1.37,3.53-2.79,5.34-4.16,1.24-.94,2.48-1.88,3.81-2.68.86-.52,1.81-1.93,2.83-.48.21.29-.77,1.71-1.48,2.29-2.02,1.66-4.18,3.14-6.27,4.7-.39.29-.77.61-1.12.95-1.69,1.58-1.73,1.79-.78,4.13-.89.3-1.77.87-2.63.83-2.21-.1-3.16,1.45-4.37,2.8-5.06,5.61-9.12,11.81-10.62,19.32-.74,3.71-.95,7.52-1.06,11.4,3.44-4.82,7.45-8.61,12.78-10.77.24.21.47.42.71.63-.51.67-.97,1.39-1.55,1.99-2.89,2.98-6.1,5.7-8.66,8.94-3.28,4.16-4.38,9.24-4.61,14.49-.02.49.02.98.07,1.46.01.13.17.25.56.79,4.39-8,11.3-11.42,20.1-11.52-.42,6.74-4.94,16.72-12.08,18.48-1.02.25-1.94.86-2.93,1.25-3.65,1.44-5.16,4.18-5.28,8.03-.19,6,.93,11.74,3.11,17.26,3.15,7.96,7.35,15.32,13.14,21.69.31.34.63.68,1.15.92-.02-3.12-.65-6.03-2.41-8.64-2.92-4.33-4.88-9.03-5.76-14.2-.56-3.3-1.52-6.56-1.78-9.87-.49-6.2,2.08-10.42,7.35-12.92.28-.13.6-.18,1.24-.37Zm1.38-18.82c-6.61.49-13.61,5.78-14.23,10.15,4.53-3.23,9.16-6.54,14.23-10.15Zm-31.46,20.65c1.81,5.83,6.83,9.08,10.63,13.31-2.16-5.55-5.78-9.93-10.63-13.31Zm27.56,1.98c-2.93,2.45-4.09,7.07-2.87,11.02,1.98-3.46,3.51-6.72,2.87-11.02Zm6.3,23.94c3.69-4.2,4.54-5.93,4-8.03-3.26,1.39-4.69,4.13-4,8.03Z"/>
    <path class="cls-1" d="m161.83,107.01c6.16,2.6,9.26,7.51,8.41,13.8-1.07,7.98-2.89,15.73-7.05,22.82-1.36,2.32-1.99,5.08-2.95,7.64.2.12.41.23.61.35.24-.12.55-.18.7-.37,6.67-8.58,12.61-17.58,14.93-28.4.7-3.25.8-6.64.99-9.98.22-3.74-1.35-6.4-4.96-7.86-4.5-1.82-8.27-4.58-10.7-8.95-1.84-3.32-2.4-6.85-2.37-10.95,8.5.66,14.64,4.42,18.54,11.92-.02-5.72-.34-11.35-3.81-15.94-3.25-4.29-7.08-8.14-10.64-12.64.8.22,1.69.28,2.38.69,4.08,2.39,7.47,5.53,9.96,9.59.21.34.47.65,1.16.93,0-.92,0-1.83,0-2.75.02-11.51-4.73-21.05-12.27-29.39-1-1.1-1.98-2.26-3.95-1.9-1.07.2-2.39-.43-1.85-2.3.18-.62-.29-1.74-.83-2.2-2.36-2.01-4.85-3.88-7.3-5.78-.52-.4-1.17-.68-1.55-1.18-.27-.36-.17-.99-.24-1.49.45-.02,1.01-.22,1.32-.03,1.74,1.06,3.44,2.19,5.12,3.35,1.07.74,2.11,1.55,3.12,2.38,1.48,1.23,2.92,2.57,4.2-.09,1.19.71,2.13,1.28,3.17,1.9-.01.26.1.67-.06.87-1.97,2.46-.44,4.02,1.21,5.82,7.64,8.37,12.31,18.02,12.47,29.57.03,2.37.22,4.74.35,7.1,0,.12.18.23.58.71,1.26-6.78,5.86-12.48,4.24-19.64-.24-1.07-.53-2.13-.8-3.19.16-.1.31-.21.47-.31.71.7,1.58,1.3,2.1,2.12,4.14,6.54,5.29,13.54,2.51,20.84-.75,1.96-2.2,3.95-3.87,5.21-3.28,2.47-4.41,5.65-4.47,9.48-.02,1.26,0,2.52.22,3.85,3.11-3.13,6.04-6.27,10.32-7.26.2.27.41.54.61.81-.85.79-1.7,1.58-2.56,2.36-1.64,1.47-3.43,2.8-4.91,4.42-3.09,3.37-4.13,7.5-3.89,12.31,2.32-2.35,4.44-4.61,6.67-6.75,2.2-2.12,4.51-4.12,6.77-6.18.16.18.36.29.36.41.45,6.82-.04,13.5-4.28,19.19-1.36,1.82-3.36,3.58-5.44,4.37-5.19,1.98-8.64,5.34-10.37,10.57-.27.83-.76,1.58-1.16,2.37.13.18.26.36.4.55,2.66-1.46,5.41-2.77,7.94-4.42,2.51-1.65,4.8-3.64,7.41-5.2-1.4,3.71-4.07,6.27-7.27,8.17-2.73,1.62-5.77,2.71-8.57,4.23-1.38.75-2.76,1.74-3.75,2.95-4.3,5.25-8.44,10.63-12.66,15.94-.61.76-1.27,1.53-2.05,2.09-.42.3-1.15.14-1.74.19-.03-.58-.28-1.27-.05-1.73,1.09-2.19,2.39-4.28,3.45-6.48,2.03-4.23,2.74-8.78,2.12-13.38-.25-1.82-1.39-3.57-2.32-5.24-1.45-2.62-3.36-5.02-4.51-7.75-.69-1.65-.29-3.75-.41-6.2,4.38,1.59,8.01,3.27,9.08,7.29.94,3.54.85,7.35,1.22,11.1-.2,0,.04.06.08,0,2.69-3.93,4.29-8.31,4.49-13.02.07-1.55-.86-3.29-1.74-4.7-3.21-5.12-4.21-11.26-2.35-16.55Zm.61-18.33c4.04,3.25,8.08,6.51,12.27,9.89-1.51-5.12-7.07-9.75-12.27-9.89Zm18.54,32.83c3.47-4.23,8.48-7.16,10.61-12.88-4.32,2.47-9.86,9.17-10.61,12.88Zm-14.11.07c1.51-3.88,0-9.19-3.02-10.74-.41,4.01.27,7.55,3.02,10.74Zm-13.06,5.19c.29,3.24,2.12,5.28,4.35,7.45.44-3.4-1.34-6.42-4.35-7.45Z"/>
    <path class="cls-1" d="m128.36,170.61c4.41-1.8,6.53-5.25,8.05-9.48,1.62,3.86,3.24,7.52,8.16,9.24-4.89,2.06-7.45,5.25-8.07,10.11-1.71-4.21-3.63-7.97-8.14-9.86Zm9.77-.31c-.8-.69-1.37-1.52-1.77-1.45-.56.1-1.26.83-1.38,1.4-.08.39.73,1.32,1.18,1.34.52.03,1.08-.67,1.97-1.3Z"/>
    <path class="cls-1" d="m65.33,180.41c-1.58-4.19-3.52-7.82-8.2-9.86,4.43-1.93,6.69-5.14,8-9.36,1.7,3.65,3.13,7.39,7.82,9.15-4.26,2.38-6.82,5.48-7.62,10.07Zm1.69-10.2c-.93-.59-1.67-1.33-1.97-1.19-.61.29-1.08,1.03-1.36,1.69-.07.16.93,1.12,1.26,1.03.64-.16,1.15-.81,2.07-1.54Z"/>
    <path class="cls-1" d="m131.27,39.35c.5,2.78.9,5.58,1.51,8.33.75,3.37,4.12,3.11,6.63,4.04l-.17.61c-.67.2-1.32.45-2,.58-3.99.79-4.99,1.96-5.3,6.07-.09,1.1-.41,2.19-.63,3.28-.25-.01-.51-.03-.76-.04-.52-2.3-.96-4.63-1.59-6.91-.8-2.91-4.16-1.65-6.01-3.47.77-.3,1.34-.71,1.92-.72,2.86-.09,3.99-1.94,4.47-4.35.34-1.75.38-3.55.64-5.32.12-.82.45-1.6.69-2.4.2.1.4.19.61.29Z"/>
    <path class="cls-1" d="m77.9,30.36c.62-1.82,1.24-3.65,1.98-5.82,2.34,1.59,1.47,4.29,3.07,6.23.5-1.79.87-3.37,1.42-4.89.17-.45.87-.7,1.33-1.04.2.39.64.84.56,1.16-.97,3.96-2.02,7.9-3.07,11.84-.02.09-.27.12-.78.33-.62-2.25-1.24-4.47-1.85-6.69-.17-.02-.33-.05-.5-.07-.68,2.21-1.35,4.42-2.16,7.06-.6-.73-.97-.98-1.05-1.3-.83-3.33-1.6-6.67-2.39-10.01-.06-.24-.2-.53-.11-.71.24-.51.58-.97.88-1.45.43.39,1.09.71,1.23,1.19.41,1.37.62,2.79.9,4.2.18-.01.35-.02.53-.03Z"/>
    <path class="cls-1" d="m77.57,51.89c-2.11,1.72-4.16,2.72-5.11,4.36-.91,1.59-.68,3.83-.95,5.79-.25.03-.5.07-.74.1-.23-.82-.49-1.64-.68-2.47-.28-1.26-.24-2.68-.85-3.74-.53-.92-1.72-1.51-2.71-2.08-.89-.51-1.91-.79-2.9-1.68.77-.32,1.52-.74,2.32-.94,2.82-.7,3.7-1.68,3.96-4.67.17-1.86.29-3.73.45-5.59.01-.12.21-.23.56-.6.29.46.67.82.74,1.23.11.63-.04,1.3,0,1.95.2,3.87-.06,8.05,5.92,8.35Z"/>
    <path class="cls-1" d="m55.2,76.84c-.5-1.91-.54-4.15-1.62-5.63-1.06-1.44-3.19-2.1-5.04-3.21,1.76-.89,3.84-1.36,4.96-2.67,1.14-1.33,1.33-3.47,2.13-5.83.71,2.32.83,4.43,1.92,5.76,1.05,1.29,3.1,1.76,4.81,2.65-1.74,1.13-3.88,1.91-5.01,3.43-1.07,1.44-1.1,3.66-1.59,5.54-.18-.02-.37-.03-.55-.05Z"/>
    <path class="cls-1" d="m145.32,76.74c-.52-1.9-.58-4.15-1.68-5.61-1.07-1.41-3.2-2.02-5.14-3.14.82-.34,1.44-.7,2.1-.85,3.01-.71,3.55-1.32,3.9-4.37.1-.85.39-1.68.6-2.53.24.01.48.02.73.03.49,1.72.56,3.78,1.6,5.05,1.05,1.29,3.06,1.79,4.96,2.8-.91.47-1.68,1.11-2.54,1.27-2.44.45-3.08,2.06-3.17,4.23-.04,1.06-.34,2.12-.52,3.17-.28-.02-.55-.04-.83-.07Z"/>
    <path class="cls-1" d="m118.81,34.01c0,.94.11,1.89-.04,2.8-.09.51-.62.94-.95,1.41-.28-.42-.8-.83-.81-1.26-.07-3.51-.1-7.03.03-10.54.02-.5,1.12-1.48,1.43-1.37,1.39.48,3.14.95,3.88,2.03.67.97.78,3.23.09,4.04-1.67,1.97-.75,3.37.2,4.98.24.42.54.86.58,1.31.02.27-.51.84-.67.8-.5-.13-1.12-.37-1.37-.77-.7-1.13-1.24-2.36-1.85-3.56-.17.04-.34.09-.51.13Zm.96-7.13c-.23.14-.46.27-.69.41v4.01c.27.08.55.16.82.24.4-.84,1.11-1.67,1.11-2.51,0-.71-.8-1.43-1.24-2.14Z"/>
    <path class="cls-1" d="m97.67,37.99c-1.8.73-2.14-.2-2.36-1.23-.35-1.62-1.42-1.89-2.91-1.92-1.53-.02-2.17.62-2.62,1.98-.19.57-1.02.93-1.56,1.38-.07-.64-.36-1.35-.18-1.91,1.07-3.43,2.22-6.84,3.41-10.23.15-.44.65-.9,1.09-1.04.24-.07.71.49,1.02.83.15.16.17.45.25.69,1.27,3.78,2.54,7.55,3.86,11.45Zm-4.97-9.03c-.14.04-.27.08-.41.12-.32,1.22-.65,2.43-.99,3.72h2.79c-.53-1.46-.96-2.65-1.39-3.84Z"/>
    <path class="cls-1" d="m110.19,33.58c-.79,2-.12,2.76,1.93,2.72.63-.01,1.27.59,1.91.91-.65.34-1.28.7-1.95.99-.2.09-.48.02-.73.03q-3.45.06-3.4-3.44c.04-2.52.13-5.05.06-7.57-.05-1.69.55-2.43,2.26-2.24.72.08,1.5-.12,2.19.06.52.13.93.67,1.39,1.02-.47.31-.91.83-1.42.9-2.58.38-2.95.66-2.53,2.83.11.58.73,1.11,1.22,1.55.52.46,1.16.78,1.75,1.17-.68.28-1.35.57-2.03.85-.15.06-.3.11-.64.23Z"/>
    <path class="cls-1" d="m67.75,24.44c.17,1.03.35,2.2.49,3.06-1.46,1.13-2.82,2.19-4.05,3.14-1.14-1.06-2.33-2.24-3.59-3.33-.91-.78-.61-1.35.12-1.99,1.22-1.06,2.42-2.14,3.66-3.25,1.04.73,2.17,1.52,3.37,2.37Z"/>
    <path class="cls-1" d="m96.57,21.19c-.32-1.58-.26-2.35,1.22-3,1.23-.53,2.06-1.99,3.2-3.17.2.29.68.68.77,1.15.25,1.31.91,1.99,2.26,2.16.4.05.99.64,1.03,1.03.05.48-.37,1.45-.6,1.46-2.15.05-2.4,1.76-3.03,3.18-.08.18-.39.26-.77.51-1.41-1.03-1.22-4.05-4.08-3.32Z"/>
    <path class="cls-1" d="m133.13,27.54c.13-.89.33-2.22.52-3.52,1.06-.64,2.2-1.33,3.34-2.02-.23.17-.47.34-.7.51,1.77,1.22,3.55,2.45,5.25,3.62-1.85,1.67-3.29,2.98-4.64,4.19-1.11-.82-2.38-1.75-3.77-2.78Z"/>
    <path class="cls-1" d="m105.89,25.94c-1.3.53-2.14.88-3.26,1.33,0,2.98.05,6.06-.05,9.14-.02.62-.62,1.22-.95,1.83-.27-.59-.73-1.17-.76-1.77-.11-2.2-.11-4.4-.09-6.6.01-1.72-.04-3.35-2.36-3.56,1.15-1.56,4.84-1.84,7.46-.37Z"/>
    <path class="cls-1" d="m82.86,41.22c-1.39,1.07-2.13,2.08-3.02,2.22-1.41.23-2.3-.89-2.32-2.24-.02-1.31.91-2.27,2.2-2.02.91.17,1.69,1.06,3.14,2.05Z"/>
    <path class="cls-1" d="m124.04,162.83c-.86.5-1.82,1.49-2.56,1.35-.79-.15-1.84-1.29-1.97-2.13-.19-1.23.88-2.2,2.17-1.86.9.24,1.62,1.16,2.41,1.77-.02.29-.03.58-.05.87Z"/>
    <path class="cls-1" d="m67.18,154.16c-1.39,1.05-2.13,2.01-3.03,2.19-1.21.25-2.41-.61-2.11-1.94.2-.89,1.24-2.04,2.06-2.19.72-.13,1.66.98,3.08,1.94Z"/>
    <path class="cls-1" d="m140.04,154.97c-.9.44-1.78,1.16-2.72,1.26-1.24.14-2.13-.9-1.8-2.03.23-.77,1.37-1.77,2.09-1.76.84,0,1.66,1.01,2.49,1.58-.02.32-.04.63-.07.95Z"/>
    <path class="cls-1" d="m146.61,147.92c-.98-1.34-2.02-2.14-1.96-2.85.07-.72,1.21-1.87,1.88-1.87.7,0,1.85,1.1,1.95,1.83.09.68-.93,1.52-1.87,2.88Z"/>
    <path class="cls-1" d="m129.56,20.61c-1.52.68-5.51.14-6.27-.69-.23-.25-.4-.78-.3-1.06.1-.29.65-.68.9-.61,1.88.51,4.02.5,5.67,2.37Z"/>
    <path class="cls-1" d="m77.44,18.07c.34.21,1.02.43,1.02.68.02.45-.25,1.19-.58,1.33-1.2.47-2.46.79-3.73,1.03-.34.06-1.01-.32-1.09-.62-.09-.31.26-.98.58-1.12,1.18-.5,2.43-.85,3.8-1.3Z"/>
    <path class="cls-1" d="m103.25,191.48c-1.22,1-1.92,1.99-2.71,2.07-.53.06-1.54-1.1-1.72-1.85-.28-1.15.5-2.17,1.78-1.98.77.12,1.44.92,2.65,1.76Z"/>
    <path class="cls-1" d="m80.95,187.12c-.75.45-1.55,1.31-2.23,1.23-.68-.08-1.25-1.12-1.86-1.74.66-.58,1.27-1.57,1.98-1.63.67-.06,1.42.83,2.14,1.31,0,.28-.02.56-.03.84Z"/>
    <path class="cls-1" d="m57.29,145.49c-.72.48-1.55,1.46-2.13,1.32-.69-.16-1.49-1.21-1.61-1.98-.08-.45,1.06-1.55,1.65-1.55.71,0,1.41.87,2.11,1.36,0,.28-.01.57-.02.85Z"/>
    <path class="cls-1" d="m115.88,16.35c1.42.29,2.47.42,3.46.74.33.11.5.7.75,1.08-.37.24-.74.68-1.11.67-.96-.02-1.97-.11-2.87-.42-.63-.21-1.12-.83-1.67-1.26.57-.32,1.13-.63,1.44-.81Z"/>
    <path class="cls-1" d="m81.35,162.8c-1.28.69-2.11,1.5-2.66,1.34-.72-.21-1.22-1.18-1.81-1.83.68-.54,1.37-1.52,2.04-1.5.68.02,1.33,1.03,2.43,1.99Z"/>
    <path class="cls-1" d="m123.11,189.27c-.92-1.14-1.84-1.79-1.89-2.5-.04-.56,1.11-1.76,1.51-1.68.75.17,1.65.96,1.89,1.69.16.47-.75,1.29-1.51,2.48Z"/>
    <path class="cls-1" d="m100.42,9.76c-.75-1.19-1.64-1.98-1.5-2.52.18-.7,1.1-1.49,1.83-1.65.39-.09,1.54,1.11,1.49,1.63-.08.74-.95,1.41-1.81,2.54Z"/>
    <path class="cls-1" d="m82.1,18.78c-.19-.13-.79-.35-.82-.64-.04-.32.37-.93.7-1.02,1.17-.31,2.38-.52,3.58-.62.31-.03.94.49.93.76,0,.35-.42.93-.76,1.01-1.1.26-2.24.33-3.64.51Z"/>
    <path class="cls-1" d="m179.36,148.88c-.9.7-1.42,1.4-2.03,1.49-.4.05-1.38-.93-1.29-1.19.21-.63.8-1.35,1.4-1.56.35-.13,1.02.64,1.93,1.27Z"/>
    <path class="cls-1" d="m41.13,32.34c-.7-.84-1.52-1.4-1.46-1.84.09-.63.83-1.16,1.29-1.73.56.46,1.53.89,1.57,1.4.04.58-.74,1.21-1.41,2.18Z"/>
    <path class="cls-1" d="m148.56,43.84c.72.92,1.44,1.46,1.51,2.08.04.37-.94,1.21-1.44,1.19-.51-.02-1.29-.79-1.38-1.32-.08-.45.66-1.05,1.31-1.95Z"/>
    <path class="cls-1" d="m100.74,158.04c.64.92,1.36,1.52,1.29,1.99-.08.51-.89,1.25-1.4,1.26-.43,0-1.2-.85-1.24-1.36-.04-.48.69-1.02,1.35-1.89Z"/>
    <path class="cls-1" d="m23.68,147.22c.66.83,1.39,1.35,1.39,1.86,0,.48-.9,1.43-1.17,1.35-.63-.18-1.35-.76-1.58-1.36-.12-.32.71-1,1.36-1.85Z"/>
    <path class="cls-1" d="m169.78,153.82c.68.9,1.39,1.44,1.35,1.91-.04.54-.77,1.02-1.19,1.52-.47-.44-1.25-.84-1.31-1.34-.07-.51.57-1.11,1.15-2.09Z"/>
    <path class="cls-1" d="m161.96,30.1c-.9.69-1.5,1.48-1.93,1.4-.6-.12-1.07-.9-1.59-1.39.52-.44,1-1.17,1.56-1.24.48-.06,1.06.63,1.97,1.24Z"/>
    <path class="cls-1" d="m125.93,32.96c-.84.73-1.35,1.5-1.83,1.49-.47,0-1.24-.79-1.3-1.29-.05-.44.67-1.32,1.13-1.37.5-.06,1.09.6,2.01,1.18Z"/>
    <path class="cls-1" d="m31.2,157.45c-.66-.9-1.32-1.45-1.41-2.09-.05-.32,1.17-1.23,1.41-1.11.61.32,1.13,1.02,1.39,1.68.09.23-.71.8-1.38,1.51Z"/>
    <path class="cls-1" d="m151.88,21.99c-.93.73-1.46,1.48-1.93,1.44-.52-.05-1.13-.73-1.37-1.29-.09-.22.68-1.14,1.1-1.17.55-.04,1.14.49,2.19,1.02Z"/>
    <path class="cls-1" d="m37.41,164.1c.7.94,1.32,1.43,1.39,1.98.06.45-.56.98-.88,1.47-.53-.49-1.24-.9-1.51-1.5-.14-.32.47-.98,1-1.95Z"/>
    <path class="cls-1" d="m54.25,43.92c.59.83,1.28,1.43,1.17,1.74-.19.53-.84,1.1-1.39,1.21-.32.06-1.17-.77-1.14-1.15.05-.52.7-.98,1.36-1.8Z"/>
    <path class="cls-1" d="m157.11,53.52c-.85.61-1.41,1.29-1.76,1.2-.56-.15-.98-.81-1.46-1.25.41-.41.83-1.17,1.23-1.16.55.02,1.08.62,2,1.22Z"/>
    <path class="cls-1" d="m100.71,68c2.96,6.48,7.59,11.27,11.81,16.37,2.41,2.92,5,5.73,7.08,8.88,6.24,9.45,6.84,19.53,1.61,29.46-3.84,7.29-10.47,11.19-18.86,12.19.62-1.71,1.35-3.16,1.67-4.7.6-2.85-.2-5.49-1.64-7.97-.88-1.52-1.77-3.04-2.58-4.6-2.45-4.77-2.07-9.29,1.47-13.38,1.59-1.84,3.43-3.47,5.04-5.29,2.16-2.45,3.65-5.23,3.45-8.62-.25-4.36-2.71-7.24-6.45-9.15-.44-.22-1.1-.01-1.66,0,.32.48.54,1.15.99,1.42,5.87,3.48,6.96,9.3,2.6,14.57-1.59,1.93-3.38,3.7-5.06,5.55-4.3,4.74-4.99,10.49-1.93,16.12.84,1.55,1.83,3.01,2.61,4.59,1.65,3.33,2.18,6.7-.19,9.97-.76,1.05-1.69,1.55-3.12,1.39-9.64-1.09-18.15-9.05-20.25-19.3-2.18-10.66,1.17-19.68,8.33-27.63,4.02-4.47,7.77-9.18,11.5-13.9,1.32-1.67,2.22-3.67,3.57-5.97Zm13.28,50.76c.24.02.47.03.71.05.26-1.43.51-2.86.78-4.29.2-1.07.64-1.77,1.91-1.97,1.26-.2,2.46-.82,3.69-1.25-.02-.15-.04-.31-.06-.46-.93-.35-1.84-.74-2.79-1.05-2.38-.77-2.79-1.31-3.03-3.87-.08-.85-.33-1.68-.51-2.52-.23.02-.47.03-.7.05-.2,1.09-.4,2.18-.61,3.28-.29,1.54-.75,2.79-2.71,2.96-.96.08-1.87.81-2.8,1.25.02.2.05.4.07.6.92.32,1.82.81,2.76.92,1.76.21,2.41,1.22,2.61,2.82.15,1.17.44,2.33.67,3.49Zm-26.46-10.9c-.16-.02-.31-.05-.47-.07-.44,2.16-1.08,4.17-3.77,4.85,1.33.73,2.41,1,2.93,1.7.55.73.57,1.85.83,2.8.17-.02.33-.04.5-.07.18-.33.47-.65.51-1,.17-1.36.13-2.8,2.14-2.72.18,0,.53-.47.53-.72,0-.25-.33-.71-.54-.72-1.76-.15-1.89-1.38-2-2.74-.04-.45-.43-.87-.66-1.31Zm6.35-17.42c-.65.89-1.36,1.46-1.44,2.1-.05.43.8.97,1.25,1.46.53-.53,1.34-1,1.51-1.63.11-.42-.7-1.08-1.31-1.93Zm6.78-3.26c-.69-.55-1.09-1.09-1.55-1.15-.31-.04-1.06.71-.99.92.14.48.6,1.02,1.06,1.18.27.1.78-.47,1.49-.95Z"/>
  </g>
  <polygon class="cls-2" points="100.23 191.1 185.8 42.9 14.67 42.9 100.23 191.1"/>
</svg>