<?xml version="1.0" encoding="UTF-8"?>
<svg id="Layer_1" data-name="Layer 1" xmlns="http://www.w3.org/2000/svg" viewBox="0 0 200 200">
  <defs>
    <style>
      .cls-1 {
        stroke-width: 0px;
      }
    </style>
  </defs>
  <path class="cls-1" d="m3.66,146.63c1.7-4.1,5.47-6.29,8.66-8.98,8.14-6.87,16.46-13.52,24.55-20.45,4.22-3.61,7.84-7.96,12.23-11.32,2.89-2.21,6.55-3.67,10.08-4.74,6.65-2.03,11.23,2.14,11.14,9.4-.07,5.42-1.16,10.83-1.81,16.24-.36,3-.78,5.99-1.06,9-.07.77.31,1.58.66,3.22,1.64-1.12,3.11-1.72,3.99-2.79,4.47-5.42,8.52-11.21,13.23-16.41,5.02-5.55,10.34-10.89,16.02-15.75,4.28-3.67,9.62-5.03,15.39-3.6,6.18,1.53,9.55,5.33,9.12,11.73-.45,6.74-1.75,13.42-2.49,20.15-.17,1.54-.1,3.75.82,4.57.86.77,3.17.53,4.55-.01,6.98-2.78,12.65-7.57,18.25-12.43,6.32-5.48,12.54-11.09,18.98-16.43,4.06-3.37,8.83-5.27,14.21-4.07,5.82,1.29,7.58,6.15,8.5,11.14,2.06,11.1.42,21.97-2.8,32.66-.22.74-.76,1.38-1.31,2.35-3-2.49-2.58-5.92-3.26-8.78-1.68-7.16-2.97-14.42-4.41-21.64-.05-.24.02-.54-.1-.72-1.48-2.13-2.61-5.3-4.61-6.01-1.42-.51-4.43,1.92-6.03,3.68-6.68,7.35-12.77,15.26-19.7,22.36-6.76,6.92-13.97,13.61-24.24,15.11-7.28,1.07-11.15-3.26-11.43-9.29-.41-9.03,2.64-17.46,3.96-26.18.32-2.09.41-5.1-.78-6.33-2.13-2.19-5.01-.45-6.76,1.3-4.7,4.7-9.2,9.61-13.57,14.63-4.37,5.03-8.23,10.51-12.77,15.37-4.03,4.3-9.12,7.12-15.08,8.25-11.02,2.09-14.44-3.99-12.46-13.24,1.08-5.07,2.95-9.91,2.79-15.28-.17-5.72-4.56-7.48-9.08-4.77-4.13,2.48-7.9,5.59-11.81,8.44-8.61,6.28-17.18,12.64-25.87,18.81-1.44,1.03-3.44,1.28-5.18,1.89-.18-.36-.35-.72-.53-1.07Z"/>
  <path class="cls-1" d="m7.51,92.08c2.23-2.29,4.24-4.86,6.74-6.82,11.56-9.09,22.87-18.41,33.26-28.88,3.58-3.6,8.38-6.14,12.94-8.55,2.08-1.1,4.96-1.03,7.45-.93,3.45.14,6.36,3.8,6.14,8.26-.34,6.64-1.22,13.25-1.94,19.86-.18,1.68-.85,3.33-.86,4.99-.01,1.32.64,2.64.99,3.96,1.29-.52,2.92-.71,3.8-1.63,2.25-2.36,4.16-5.05,6.21-7.6,4.72-5.86,9.2-11.93,14.23-17.5,4.24-4.7,9.26-8.66,15.44-10.62,10.62-3.37,20.25,3.04,18.16,16.62-.72,4.67-1.88,9.27-2.63,13.93-.3,1.87-.05,3.83-.05,5.64,2.71,1.6,5,.62,6.81-.64,6.45-4.5,12.83-9.1,19.02-13.95,6.38-5.01,12.48-10.37,18.75-15.52,1.02-.83,2.24-1.48,3.45-2.01,7.71-3.38,14.1-.45,16.48,7.64,2.38,8.13,1.69,16.38.41,24.56-.68,4.35-1.93,8.6-2.92,12.9-.53.04-1.06.08-1.59.12-.53-1.41-1.23-2.79-1.55-4.25-2.04-9.34-3.94-18.71-6.04-28.04-.53-2.34-1.33-4.78-5.18-5.49-2.34,2.29-5.25,4.82-7.78,7.67-8.84,9.99-16.87,20.74-27.83,28.67-3.82,2.77-7.99,4.59-12.62,5.36-7.38,1.23-12.08-2.56-12.17-10.12-.04-3.23.53-6.5,1.08-9.7,1.02-5.96,2.35-11.87,3.28-17.85.21-1.33-.27-3.62-1.14-4.07-1.25-.63-3.65-.58-4.69.25-3.87,3.09-7.72,6.34-10.95,10.06-5.08,5.86-9.39,12.38-14.49,18.21-5.45,6.23-12.07,11.06-20.73,11.56-7.75.45-11.71-4.54-10.04-12.14.91-4.14,2.02-8.23,3.03-12.35.17-.7.38-1.42.4-2.14.07-2.84-.04-5.79-2.65-7.52-2.73-1.82-5.59-.59-7.84,1.03-6.29,4.53-12.31,9.42-18.54,14.03-5.65,4.18-11.38,8.26-17.2,12.2-1.66,1.12-3.76,1.6-5.66,2.37-.32-.53-.65-1.05-.97-1.58Z"/>
</svg>