<?xml version="1.0" encoding="UTF-8"?>
<svg id="Layer_1" data-name="Layer 1" xmlns="http://www.w3.org/2000/svg" viewBox="0 0 200 200">
  <defs>
    <style>
      .cls-1 {
        stroke-width: 0px;
      }
    </style>
  </defs>
  <path class="cls-1" d="m100.51,178.73c-.32-4.75-.53-9.52-.99-14.26-1.51-15.74-2.7-31.53-4.82-47.19-1.72-12.68-4.05-25.34-7.12-37.77-3.29-13.29-9.46-25.22-19.39-35.16-8.83-8.84-26.38-6.99-33.5,4.69-2.18,3.58-1.75,7.39-.47,11.11,1.06,3.1,2.31,6.14,3.65,9.12,1.4,3.13,3.07,6.13,4.53,9.23,3.39,7.21,1.92,12.04-5.4,14.88-7.76,3.01-15.87,4.83-23.41-.87-1.43-1.08-2.38-2.82-3.55-4.25.32-.37.65-.73.97-1.1.89.37,1.79.7,2.65,1.12,1.47.71,2.84,1.91,4.37,2.15,3.15.5,6.44.52,8.5-2.62,2.12-3.23.52-5.9-1.48-8.52-12.6-16.54-8.92-37.96,7.13-49.58,4.52-3.27,9.63-5.04,15.32-5.15,6.47-.12,12.85.13,18.96,2.6,10.81,4.36,18.59,12.13,23.56,22.37,3.74,7.7,6.28,15.97,9.33,24,.42,1.12.74,2.28,1.33,4.12.58-1.12.94-1.6,1.08-2.14,3.45-13.35,8.12-26.11,17.32-36.77,7.33-8.5,16.52-13.33,27.68-14.1,7-.48,14.04-.31,20.33,3.47,17.53,10.55,22.3,32.77,10.74,49.64-.54.79-1.06,1.59-1.62,2.36-1.77,2.42-3.29,4.87-.8,7.72,2.49,2.85,6.19,3.67,9.7,2.06,1.73-.79,3.39-1.74,5.1-2.58.19-.09.51.08,1.12.2-.11,3.68-2.87,5.38-5.52,6.7-5.72,2.85-11.71,1.86-17.62.43-.27-.06-.52-.17-.79-.24-8.82-2.32-12.16-7.89-7.45-17.45,2.95-5.99,5.63-12.15,7.96-18.41,1.72-4.6.32-8.78-3.11-12.41-9.69-10.24-25.46-10.23-35.36,2.31-9.68,12.25-15.13,26.22-17.77,41.38-2.5,14.38-4.76,28.8-6.75,43.25-.99,7.15-1.22,14.41-1.63,21.62-.37,6.41-.47,12.83-.81,19.25-.09,1.67-.67,3.31-1.02,4.97-.33-.06-.65-.12-.98-.18Z"/>
</svg>