<?xml version="1.0" encoding="UTF-8"?>
<svg id="Layer_1" data-name="Layer 1" xmlns="http://www.w3.org/2000/svg" viewBox="0 0 200 200">
  <defs>
    <style>
      .cls-1 {
        stroke-width: 0px;
      }
    </style>
  </defs>
  <path class="cls-1" d="m175.27,61.41c-1.84-1.35-3.61-2.81-5.52-4.05-9.46-6.14-20.06-9.12-30.96-11.46-15.77-3.39-31.74-4.28-47.74-3.39-13.74.76-27.04,3.86-38.79,11.72-9.61,6.43-14.91,15.42-16.09,26.82-.98,9.52,6.17,19.73,15.13,21.18,14.6,2.37,23.82-6.24,25.24-20.11.26-2.58.11-5.21.02-7.82-.22-5.91-4.21-9.92-10.17-10.18-2.84-.13-5.69-.02-8.59-.02-.39-3.14,1.83-3.66,3.49-4.15,12.25-3.6,24,2.16,26,16.06,1.5,10.45-.17,20.03-5.99,28.99-4.88,7.51-12.12,11.05-20.38,12.4-11.31,1.86-22.31.15-32.51-5.33-9.84-5.29-15.13-13.38-15.17-24.82-.08-19.33,10.05-32.37,25.75-41.83,10.81-6.51,22.74-9.87,35.31-10.97,24.91-2.18,49.43.14,73.43,7.07,7.74,2.23,15.3,5.38,21.56,10.67,2.72,2.29,4.8,5.33,7.17,8.03-.4.39-.79.79-1.19,1.18Z"/>
  <path class="cls-1" d="m28.08,129.47c2.41,1.67,4.77,3.42,7.24,4.99,8.46,5.38,17.96,8.14,27.6,10.09,14.05,2.84,28.27,5.06,42.65,4.41,14.35-.65,28.6-2.5,41.48-9.64,12.32-6.83,20.48-16.76,20.03-31.46-.38-12.41-8.5-20.14-19.71-19.69-11.27.45-17.33,6.15-19.78,17.39-.93,4.25-.58,8.93-.03,13.32.64,5.09,3.91,7.36,9.18,7.52,2.86.08,5.72.21,8.58.39.3.02.57.5,1.31,1.2-1.2.97-2.14,2.26-3.37,2.63-7.28,2.23-17.24,1.96-22.79-5.54-2.02-2.73-3.36-6.36-3.88-9.75-1.99-12.94.37-24.84,10.04-34.45,5.34-5.3,12.21-7.19,19.41-7.72,8.53-.62,16.94.13,24.99,3.49,12.86,5.36,21.4,16.05,19.07,32.84-2.84,20.5-15.98,32.35-33.6,40.14-15.26,6.75-31.6,8.54-48.12,7.88-15.29-.61-30.49-2.39-45.36-6.14-10.24-2.58-20.16-6.13-28.67-12.68-2.98-2.29-5.75-4.86-6.28-9.22Z"/>
</svg>