<?xml version="1.0" encoding="UTF-8"?>
<svg id="Layer_1" data-name="Layer 1" xmlns="http://www.w3.org/2000/svg" viewBox="0 0 200 200">
  <defs>
    <style>
      .cls-1 {
        stroke-width: 0px;
      }
    </style>
  </defs>
  <path class="cls-1" d="m26.06,24.11c4.59-5.01,18.24-4.5,21.08.38,1.46,2.5,2.15,5.52,2.76,8.39.41,1.95.08,4.06.08,6.86,4.14-3.36,7.56-6.4,11.24-9.07,9.64-6.99,19.99-12.7,32.08-13.67,6.77-.54,13.73-.31,20.45.63,8.1,1.12,11.82,7.55,13.81,14.66,3.49,12.49,4.05,25.26,2.63,38.16-1.32,12.08-2.36,24.18-3.62,36.27-1.13,10.85-2.55,21.66-3.51,32.52-.29,3.31.5,6.71.86,10.81,3.51-2.8,6.53-5.25,9.59-7.63,6.03-4.69,11.82-9.75,18.22-13.87,5.12-3.29,10.88-5.45,17.43-4.04,7.33,1.57,11.43,6.06,12.88,13.15,2.18,10.59,1.02,20.8-3.9,30.49-4.62,9.11-12.36,13.85-22.21,14.88-12.52,1.31-23.53-2.47-32.6-11.35-1.63-1.6-2.86-3.62-4.39-5.59-17.5,8.59-35.59,13.96-55.15,11.75l-.36-1.49c1.45-.32,2.89-.64,4.34-.97,8.52-1.91,17.34-2.98,25.46-5.96,7.85-2.89,14.98-7.75,22.63-11.85-3.58-13.92-3.16-27.35-2.76-40.72.31-10.49,1.79-20.95,2.37-31.44.75-13.62,2.4-27.26-1.02-40.82-3.45-13.67-15.01-20.81-28.66-17.44-10.41,2.57-18.93,8.37-26.79,15.34-2.05,1.82-3.76,4.03-5.88,5.76-2.8,2.29-3.78,5.28-3.87,8.63-.55,20.39-1.33,40.78-1.38,61.16-.02,7.28,1.58,14.59,2.81,21.83.4,2.32,2.03,4.43,3.04,6.66.42.93.71,1.93,1.44,3.96-2.53-.58-4.31-.65-5.74-1.38-9.37-4.79-15.22-11.94-16.15-22.94-.98-11.69.14-23.2,1.52-34.74,1.59-13.27,3.3-26.52,5-39.77.59-4.59,1.68-9.17,1.78-13.77.07-3.27-.71-6.73-1.92-9.8-1.06-2.71-3.92-3.56-6.87-3.59-2.07-.02-4.15-.24-6.77-.4Zm100.7,135.12c2.31,5.58,6.42,8.65,11.72,9.81,3.56.78,7.34.78,11.02.78,12.39-.02,19.44-8.48,17.46-20.75-1.19-7.39-5.08-9.96-12.47-8.24-11.45,2.67-20.06,9.58-27.73,18.4Z"/>
</svg>