<?xml version="1.0" encoding="UTF-8"?>
<svg id="Layer_1" data-name="Layer 1" xmlns="http://www.w3.org/2000/svg" viewBox="0 0 200 200">
  <defs>
    <style>
      .cls-1 {
        stroke-width: 0px;
      }
    </style>
  </defs>
  <path class="cls-1" d="m57.78,111.62c-2.25,0-4.54-.3-6.73.05-10.69,1.74-15.59,10.93-16.32,21.24-.74,10.43,4.59,16.82,11.92,19.41,7.6,2.68,14.95,1.11,21.14-4.1,6.11-5.14,7.07-12.17,5.75-19.52-2.42-13.52-8.79-25.47-15.23-37.41-3.87-7.18-8.51-14.29-10.57-22.03-4.3-16.07-1.54-31.59,8.43-45.21,6.91-9.43,16.64-14.93,28-17.37,10.83-2.33,21.67-2.19,32.53.19,18.88,4.12,32.34,19.29,34.62,38.53,1.97,16.65.28,32.75-5.73,48.36-1.72,4.46-3.88,8.76-5.97,13.07-7.57,15.58-13.47,31.74-16.13,48.88-.9,5.84-.75,11.98-.12,17.88.66,6.09,4.41,10.61,10.32,12.68,8.99,3.15,17.45,2.03,25.19-3.77,4.58-3.43,5.16-8.08,4.05-13.12-.98-4.43-4.07-6.98-8.43-8.03-.65-.15-1.32-.2-2.08-.31,2.13-2.23,6.36-2.04,9.14.7,4.89,4.81,6.24,10.89,4.75,17.38-2.98,13.03-17.48,17.13-25.94,15.55-6.53-1.22-12.6-3.4-18.19-7.08-6.57-4.31-9.56-10.79-10.99-18.05-2.67-13.53.86-26.38,5.61-38.81,4.49-11.75,10.06-23.07,14.72-34.76,5.12-12.84,7.84-26.23,6.86-40.14-1.36-19.2-16.9-34.96-36.81-34.54-15.57.33-27.75,6.86-35.49,20.49-5.11,9-4.53,18.55-.09,27.65,5.04,10.32,10.76,20.32,15.89,30.6,4.71,9.43,7.42,19.44,6.78,30.1-.8,13.35-5.39,24.82-18.25,30.75-11.6,5.35-23.21,3.91-33.28-3.81-9.67-7.41-12.31-18.01-9.33-29.5,2.55-9.81,8.86-16.75,19.35-18.36,3.51-.54,7.27.6,10.92.97-.09.48-.18.95-.27,1.43Z"/>
</svg>