<?xml version="1.0" encoding="UTF-8"?>
<svg id="Layer_1" data-name="Layer 1" xmlns="http://www.w3.org/2000/svg" viewBox="0 0 200 200">
  <defs>
    <style>
      .cls-1 {
        stroke-width: 0px;
      }
    </style>
  </defs>
  <path class="cls-1" d="m86.71,134.77c-1.51,3.38-4.28,3.36-6.52,3.32-14.38-.25-28.77-.39-43.11-1.26-11.41-.69-22.75-2.36-34.13-3.62-1.48-.16-.66-.45-2.22-1.44,6.15-.86,10.01-1.95,16.18-2.62,6.24-.68,12.53-.99,18.79-1.54,6.33-.56,12.64-1.24,19.81-1.95-14.31-16.43-20.05-34.73-15.28-55.77,2.59-11.42,8.21-21.28,16.68-29.15,22.88-21.25,53.7-20.87,75.03-5.7,14.77,10.5,23.3,24.86,24.91,43.28,1.58,18.05-4.15,33.46-16.21,47.05,20.24,2.02,39.69,3.95,59.14,5.89l-.09.86c-17.88,5.4-81.32,8.34-89.13,3.57,1.98-1.38,3.52-2.78,5.33-3.65,6.56-3.17,12.87-6.63,18.18-11.78,6.57-6.39,12.26-13.37,14.41-22.45,2.92-12.38.52-23.94-6.81-34.31-8.67-12.28-20.75-19.36-35.5-21.39-21.37-2.95-42.7,7.27-52.82,26.83-3.3,6.38-5.29,13.1-5.29,19.99,0,7.8,2.44,15.2,7.19,21.8,6.49,9.02,14.66,15.78,24.66,20.47,2.21,1.04,4.32,2.28,6.8,3.6Z"/>
  <path class="cls-1" d="m199.8,168.67c-67.14,9.63-131.91,9.81-199.08.32,67.14-9.64,131.88-9.93,199.08-.32Z"/>
</svg>