<?xml version="1.0" encoding="UTF-8"?>
<svg id="Layer_1" data-name="Layer 1" xmlns="http://www.w3.org/2000/svg" viewBox="0 0 200 200">
  <defs>
    <style>
      .cls-1 {
        stroke-width: 0px;
      }
    </style>
  </defs>
  <path class="cls-1" d="m81.42,113.66c-2.12,10.54-3.75,20.5-6.17,30.27-3.14,12.69-8.09,24.71-15.72,35.46-1.91,2.69-3.91,5.49-8.27,6.77,3.85-12.71,7.86-24.53,10.96-36.59,3.09-11.98,5.23-24.21,5.33-36.83-13.86-2.37-27.64-3.14-40.65-8.07,13.47-4.34,27.36-6.12,41.94-7.87,0-5.37.33-10.81-.07-16.21-.86-11.61-2.89-23.05-6.49-34.15-2.86-8.85-5.9-17.64-8.8-26.47-.59-1.78-.93-3.65-.92-5.68,10.68,10.5,18.08,22.91,22.8,37.06,4.72,14.18,5.74,28.88,6.59,44.09h37.31c.32-4.75.6-9.61,1-14.47,1.9-23.13,8.34-44.52,24.02-62.35,1.39-1.58,2.74-3.19,4.11-4.78.34.19.68.38,1.02.57-2.4,7.5-4.66,15.04-7.24,22.48-3.94,11.39-7.47,22.9-8.69,34.91-.84,8.24-.92,16.56-1.35,24.93,14.32,2.1,27.86,3.57,40.93,7.98-12.69,4.76-26.06,5.84-39.59,7.94,1.55,25.06,7.6,49.11,16.92,72.64-3.19.9-4.64-.77-6.03-2.4-6.48-7.6-10.65-16.52-14.14-25.74-4.9-12.96-7.97-26.39-9.31-40.19-.23-2.38-1.22-3.42-3.65-3.31-5.33.24-10.66.48-16,.48-5.34,0-10.68-.3-16.02-.45-1.35-.04-2.7,0-3.83,0Z"/>
</svg>