<?xml version="1.0" encoding="UTF-8"?>
<svg id="Layer_1" data-name="Layer 1" xmlns="http://www.w3.org/2000/svg" viewBox="0 0 200 200">
  <defs>
    <style>
      .cls-1 {
        stroke-width: 0px;
      }
    </style>
  </defs>
  <path class="cls-1" d="m163.1,122.15c-.32-2.75-.95-5.5-.89-8.24.32-14.79.72-29.57,1.29-44.36.25-6.54.96-13.06,1.42-19.59.06-.92-.09-1.85-.18-3.49-4.33,3.96-8.3,7.42-12.09,11.07-14.03,13.48-27.98,27.04-42.01,40.54-10.16,9.78-20.39,19.49-30.58,29.24-.59.56-1.11,1.19-2.05,2.21,1.41,1.5,2.79,2.93,4.13,4.4,6.82,7.48,13.66,14.95,20.41,22.5,1.07,1.2,1.97,2.68,2.5,4.19.39,1.12.55,3.08-.08,3.61-.81.68-2.8.83-3.77.29-3.2-1.8-6.47-3.68-9.16-6.13-7.48-6.82-14.68-13.94-22.23-21.16-4.36,4.01-9.04,8.15-13.54,12.48-8.99,8.65-17.84,17.45-26.84,26.08-2.76,2.64-5.76,5.05-8.82,7.34-1.11.83-2.71,1.02-4.09,1.5-.32-.41-.65-.82-.97-1.23,1.57-2.26,2.87-4.8,4.77-6.75,14.44-14.84,29.01-29.56,43.53-44.32.38-.38.67-.85,1.01-1.29-9.1-11.38-19.31-21.77-27.23-33.94.37-.38.75-.76,1.12-1.14,5.54,4.48,11.16,8.86,16.58,13.47,5.51,4.68,10.83,9.6,16.67,14.8,28.36-28.66,56.55-57.17,84.75-85.67-.07-.35-.15-.69-.22-1.04-2.37,0-4.74-.13-7.1.03-6.12.4-12.23,1.17-18.36,1.36-13.41.42-26.84.78-40.25.69-4.01-.03-8.41.2-12.11-2.1-.05-.36-.1-.73-.15-1.09,2.12-.65,4.21-1.57,6.38-1.91,13.47-2.12,26.94-4.23,40.44-6.09,10.25-1.41,20.53-2.83,30.84-3.54,8.4-.58,16.86-.12,25.3-.12,1.22,10.68-13.07,91.15-17.29,97.34-.37.03-.75.05-1.12.08Z"/>
</svg>