<?xml version="1.0" encoding="UTF-8"?>
<svg id="Layer_1" data-name="Layer 1" xmlns="http://www.w3.org/2000/svg" viewBox="0 0 200 200">
  <defs>
    <style>
      .cls-1 {
        stroke-width: 0px;
      }
    </style>
  </defs>
  <path class="cls-1" d="m168.61,173.51c-1.07-3.41-1.92-6.11-2.76-8.81.41-.35.82-.7,1.24-1.06,7.45,4.7,14.98,9.24,24.03,10.08-.01.4-.03.8-.04,1.19-5.02,2.39-10.03,4.8-15.07,7.14-1.48.69-3.03,1.3-4.6,1.75-.97.28-2.04.19-3.06.26-.07-1.13-.2-2.26-.17-3.38.02-.95.23-1.89.42-3.34-2.28,0-4.4-.06-6.52,0-21.15.74-32.55-12.19-35.35-31.24-.89-6.07-.9-12.27-1.26-18.42-.76-12.95-1.47-25.91-2.21-38.87-.02-.41-.04-.82-.05-1.23-.24-9.71-.44-19.43-.74-29.14-.14-4.51-.34-9.02-.79-13.5-.81-7.99-5.78-11-13.29-7.8-11.71,4.99-19.32,13.51-20,26.63-.67,12.85-.75,25.74-.79,38.62-.03,9.31.61,18.61.65,27.92.04,8.88,1.11,17.46,5.53,25.36.36.65.43,1.46.63,2.2-.24.19-.48.38-.71.57-.94-.81-2.02-1.5-2.78-2.46-6-7.52-10.2-15.76-10.61-25.66-.53-12.7-1.32-25.39-2-38.09-.71-13.1-1.36-26.21-2.18-39.3-.19-3.1-.89-6.18-1.46-9.25-.65-3.5-3.39-5.39-6.87-4.54-9.63,2.38-17.56,7.45-23.37,15.55-.91,1.27-1.52,2.97-1.69,4.53-.62,5.83-1.27,11.69-1.43,17.55-.4,14.65-.38,29.32-.85,43.97-.43,13.46,1.84,26.14,9.27,37.62.94,1.46,1.61,3.09,2.83,5.48-7.11-1.03-12.42-3.92-17.33-7.86-9.06-7.27-9.64-17.26-8.95-27.63.31-4.75.86-9.49,1.36-14.23,1.04-9.91,2.11-19.81,3.16-29.71,1.32-12.47,2.88-24.93,3.86-37.42.55-7-3.41-11.78-10.3-13.94-1.93-.6-3.88-1.11-6.27-1.79,10.89-3.97,24.61-1.6,25.03,17.84,3.69-3.31,7-6.44,10.47-9.36,6.28-5.29,12.66-10.5,20.5-13.4,7.38-2.73,10.75-1.09,12.77,6.52.97,3.66,1.29,7.49,2.01,11.83,1.1-.64,2.23-1.19,3.24-1.9,8.97-6.31,17.91-12.65,28.82-15.35,4.87-1.2,9.34.26,11.2,4.89,1.65,4.11,2.91,8.64,3.07,13.03.42,11.24.06,22.51.16,33.77.19,20.15.02,40.32.91,60.45.54,12.34,4.53,23.68,16.15,30.52,4.97,2.93,10.4,3.71,16.23,3.41Z"/>
</svg>