<?xml version="1.0" encoding="UTF-8"?>
<svg id="Layer_1" data-name="Layer 1" xmlns="http://www.w3.org/2000/svg" viewBox="0 0 200 200">
  <defs>
    <style>
      .cls-1 {
        stroke-width: 0px;
      }
    </style>
  </defs>
  <path class="cls-1" d="m74.93,77.15c-2.23-1.32-3.88-2.25-5.48-3.25-11.83-7.34-19.03-18.25-23.64-31.05-2.58-7.17-5.67-13.93-11.26-19.35-5.22-5.07-13.52-6.49-20.12-3.25-1.35.66-2.75,1.21-4.24,1.53,4.58-6.71,17.9-8.98,26.69-4.9,7.16,3.33,11.63,9.32,15.87,15.56,5.37,7.91,10.4,16.07,16.08,23.74,13.75,18.55,39.18,19.97,54.6,7.5,7.22-5.84,12.24-13.55,17.3-21.23,4.34-6.6,8.73-13.25,13.81-19.28,8.77-10.41,24.71-11.26,35.03-2.39.15.13.1.49.22,1.21-1.16-.36-2.24-.48-3.05-1-7.95-5.1-19.53-2.5-25.31,6.9-2.7,4.39-5.27,9-7.02,13.82-5.31,14.66-13.58,26.75-27.64,34.28-.21.11-.32.42-.77,1.06,18.37,9.85,29.23,25.14,31.24,45.91,1.69,17.56-3.7,33.22-16.3,45.64-22.74,22.43-58.01,22.14-80.56.09-13.7-13.4-18.63-30.39-15.91-49.26,2.74-19,13.51-32.69,30.46-42.27Zm25.74,80.36c13.39-.48,25.48-4.5,34.71-14.82,13.59-15.19,11.12-34.32-3.88-47.02-10.25-8.68-22.32-11.83-35.83-10.54-12.98,1.23-23.73,6.37-31.67,16.56-10.17,13.05-8.89,28.65,1.17,40.31,9.23,10.69,21.48,15.06,35.5,15.51Z"/>
</svg>