<?xml version="1.0" encoding="UTF-8"?>
<svg id="Layer_1" data-name="Layer 1" xmlns="http://www.w3.org/2000/svg" viewBox="0 0 200 200">
  <defs>
    <style>
      .cls-1 {
        stroke-width: 0px;
      }
    </style>
  </defs>
  <path class="cls-1" d="m141.99,176.54c-7.09,2.79-13.37,6.03-20.04,7.67-5.89,1.45-12.21,1.47-18.34,1.45-5.39-.02-7.13-2.45-7.04-7.93.1-6.13,3.55-10.81,6.81-15.52,1.55-2.24,3.49-4.22,5.26-6.31l1.28.8c-.47,1.27-.89,2.56-1.41,3.81-1.17,2.77-2.59,5.44-3.52,8.28-1.02,3.1.27,5.03,3.41,4.79,3.92-.29,7.91-.83,11.63-2.02,4.01-1.29,7.72-3.48,11.59-5.22,2.12-.96,3.03-2.46,1.9-4.58-4.54-8.46-3.88-17.83-4.54-26.88-.92-12.67-1.13-25.4-1.63-38.1-.66-16.53-1.26-33.07-2.02-49.6-.14-2.97-.57-6.01-1.44-8.84-1.7-5.54-5.87-7.28-11.27-5.11-13.72,5.49-21.37,15.5-21.57,30.37-.28,20.82-.23,41.66.01,62.48.07,5.68,1.15,11.38,2.17,17,.48,2.63,1.9,5.09,2.89,7.63.46,1.18.92,2.37,1.04,3.71-5.73-3.54-8.46-9.17-11.08-14.87-3.24-7.03-3.11-14.66-3.56-22.11-.72-12.16-.78-24.35-1.49-36.51-.76-13.06-1.92-26.1-2.99-39.15-.43-5.23-2.97-7.13-8-5.89-8.97,2.21-16.42,7.11-21.7,14.56-2.15,3.03-2.88,7.28-3.53,11.09-.73,4.28-.8,8.7-.9,13.07-.32,14.52-.8,29.05-.65,43.57.08,8.29.39,16.71,3.67,24.57,1.47,3.53,3.24,6.93,4.92,10.37,1.01,2.07,2.12,4.1,3.44,6.66-1.49.08-2.6.45-3.45.13-8.33-3.15-16.07-7.14-20.17-15.69-.87-1.82-1.77-3.89-1.74-5.82.15-9.98.23-19.99,1.04-29.93,1.08-13.31,2.77-26.57,4.27-39.85.87-7.71,2.03-15.39,2.8-23.11.8-8.11-3.04-14.08-12.1-16.35-1.39-.35-2.78-.74-4.11-1.53,3.84-2.17,7.7-1.43,11.7-.82,4.44.69,7.98,2.74,9.76,6.63,1.66,3.63,2.29,7.74,3.51,12.16,1.46-1.41,2.73-2.59,3.95-3.82,7.17-7.24,14.95-13.67,24.27-17.95,1.95-.9,4.11-1.44,6.23-1.82,4.46-.8,7.09,1.48,8.5,6.36.75,2.6.82,5.39,1.22,8.09.23,1.52.51,3.03.83,4.88,6.54-4.19,12.4-8.15,18.47-11.76,3.27-1.95,6.81-3.54,10.39-4.88,8.16-3.04,14.14-.07,16.35,8.37,1.07,4.06,1.56,8.36,1.66,12.57.23,9.88.06,19.76.08,29.65,0,1.43.17,2.86.32,5.17,4.32-4.74,7.76-8.94,11.65-12.67,4.03-3.87,8.41-7.39,12.83-10.82,1.44-1.11,3.45-1.57,5.27-2.09,4.02-1.14,6.88-.12,8.32,3.66,1.48,3.91,2.72,8.06,3.12,12.2.53,5.4.51,10.91.07,16.32-.71,8.67-1.54,17.37-3.05,25.92-3.29,18.6-10.13,35.75-22.55,50.28-2.39,2.79-5.4,5.05-8.43,7.82,2.16,4.47,4.07,8.4,6.3,13.01-5.49-1.12-7.53-5.5-10.62-7.56Zm.76-18.15c2.4-1.99,4.39-3.25,5.9-4.95,7.61-8.53,13.85-17.87,17.68-28.79,4.61-13.15,6.48-26.76,7.37-40.54.32-5.02.2-10.18-.6-15.14-1.04-6.4-4.98-8.09-10.34-4.4-4.56,3.14-8.96,6.76-12.61,10.89-6.95,7.87-12.96,16.38-11.41,27.87.22,1.62.04,3.29.03,4.93-.1,14.22-.21,28.44,2.26,42.52.41,2.34,1.05,4.63,1.74,7.61Z"/>
</svg>